<svg xmlns="http://www.w3.org/2000/svg" xmlns:xlink="http://www.w3.org/1999/xlink" width="500" zoomAndPan="magnify" viewBox="0 0 375 374.999991" height="500" preserveAspectRatio="xMidYMid meet" version="1.2"><defs><clipPath id="5b25e262e8"><path d="M 241 160 L 273.347656 160 L 273.347656 186 L 241 186 Z M 241 160 "/></clipPath><clipPath id="02f5f54c33"><path d="M 163 78.347656 L 171 78.347656 L 171 86 L 163 86 Z M 163 78.347656 "/></clipPath><clipPath id="4ff2ccdf32"><path d="M 101.597656 235 L 269 235 L 269 243.347656 L 101.597656 243.347656 Z M 101.597656 235 "/></clipPath></defs><g id="f44a84021d"><rect x="0" width="375" y="0" height="374.999991" style="fill:#ffffff;fill-opacity:1;stroke:none;"/><rect x="0" width="375" y="0" height="374.999991" style="fill:#283e50;fill-opacity:1;stroke:none;"/><path style=" stroke:none;fill-rule:nonzero;fill:#ff997a;fill-opacity:1;" d="M 117.753906 189.789062 C 116.644531 191.753906 119.082031 194.148438 120.757812 192.332031 C 122.390625 190.5625 119.003906 187.472656 117.753906 189.789062 Z M 117.753906 189.789062 "/><g clip-rule="nonzero" clip-path="url(#5b25e262e8)"><path style=" stroke:none;fill-rule:nonzero;fill:#9ad0c3;fill-opacity:1;" d="M 271.570312 161.433594 C 267.855469 159.398438 261.097656 160.820312 257.238281 162.519531 C 250.402344 165.144531 245.378906 169 241.988281 171.074219 C 241.671875 171.265625 241.714844 171.179688 241.765625 171.386719 C 241.914062 172.027344 241.84375 171.765625 241.96875 172.113281 C 242.046875 172.316406 243.941406 171.808594 246.496094 172.578125 C 254.957031 175.292969 259.492188 183.417969 265.097656 185.011719 C 269.523438 186.074219 271.675781 182.492188 269.855469 179.292969 C 266.476562 172.539062 254.824219 170.019531 247.289062 170.546875 C 244.609375 170.742188 244.527344 170.921875 246.085938 170.402344 C 254.476562 167.859375 256.71875 167.851562 261.839844 167.972656 C 266.042969 168.070312 268.722656 168.105469 270.851562 167.128906 C 274.1875 165.730469 273.917969 162.675781 271.570312 161.433594 Z M 268.667969 183.328125 C 268.089844 183.875 267.234375 183.9375 266.480469 183.972656 C 262.15625 183.96875 258.550781 177.878906 252.136719 173.867188 C 260.3125 177.378906 261.480469 180.140625 263.929688 180.363281 C 265.289062 180.414062 265.421875 179.160156 264.839844 178.207031 C 263.402344 175.632812 258.21875 173.183594 255.324219 172.515625 C 253.742188 172.136719 252.140625 171.84375 250.535156 171.585938 C 266.457031 172.382812 271.105469 180.886719 268.667969 183.328125 Z M 271.5625 165.078125 C 268.652344 167.503906 260.433594 166.074219 254.171875 167.222656 C 260.175781 165.496094 261.878906 166.507812 263.988281 166.015625 C 266.960938 165.488281 266.613281 160.316406 253.535156 165.617188 C 255.066406 164.890625 256.632812 164.273438 258.230469 163.65625 C 260.8125 162.53125 263.601562 161.917969 266.421875 161.898438 C 268.058594 161.964844 270.433594 161.894531 271.652344 163.128906 C 272.167969 163.757812 272.160156 164.515625 271.5625 165.078125 Z M 271.5625 165.078125 "/></g><path style=" stroke:none;fill-rule:nonzero;fill:#9ad0c3;fill-opacity:1;" d="M 222.554688 193.5 C 218.816406 193.515625 215.03125 196.136719 215.023438 196.527344 C 219.347656 196.390625 222.324219 197.078125 225.945312 193.953125 C 225.207031 193.546875 223.261719 193.527344 222.554688 193.5 Z M 222.554688 193.5 "/><path style=" stroke:none;fill-rule:nonzero;fill:#9ad0c3;fill-opacity:1;" d="M 234.398438 178.210938 C 231.457031 176.445312 227.523438 177.015625 227.355469 177.183594 C 229.859375 179.578125 231.863281 180.136719 234.230469 180.128906 C 233.996094 180.128906 235.324219 180.21875 236.335938 179.675781 C 236.257812 179.589844 235.015625 178.597656 234.398438 178.210938 Z M 234.398438 178.210938 "/><path style=" stroke:none;fill-rule:nonzero;fill:#9ad0c3;fill-opacity:1;" d="M 120.589844 179.878906 C 119.972656 181.179688 120.640625 182.285156 121.6875 182.648438 C 123.078125 183.1875 124.605469 181.835938 124.039062 180.398438 C 123.46875 178.984375 121.460938 178.4375 120.589844 179.878906 Z M 120.589844 179.878906 "/><path style=" stroke:none;fill-rule:nonzero;fill:#9ad0c3;fill-opacity:1;" d="M 115.96875 170.21875 C 115.207031 169.605469 113.960938 169.679688 113.390625 170.511719 C 112.5625 171.882812 113.195312 173.144531 114.277344 173.570312 C 116.644531 174.382812 117.980469 171.671875 115.96875 170.21875 Z M 114.292969 171.132812 C 114.328125 171.074219 114.378906 171.023438 114.433594 170.984375 C 114.382812 171.03125 114.335938 171.078125 114.292969 171.132812 Z M 114.292969 171.132812 "/><path style=" stroke:none;fill-rule:nonzero;fill:#9ad0c3;fill-opacity:1;" d="M 211.777344 92.0625 C 212.875 92.617188 214.398438 91.808594 214.398438 90.539062 C 214.414062 89.414062 213.148438 88.542969 212.117188 89.027344 C 210.707031 89.382812 210.46875 91.417969 211.777344 92.0625 Z M 211.777344 92.0625 "/><path style=" stroke:none;fill-rule:nonzero;fill:#9ad0c3;fill-opacity:1;" d="M 205.519531 93.160156 C 204.324219 94.125 204.683594 96.429688 206.21875 96.835938 C 207.835938 97.292969 209.585938 95.414062 208.792969 93.851562 C 208.253906 92.546875 206.550781 92.269531 205.519531 93.160156 Z M 205.519531 93.160156 "/><path style=" stroke:none;fill-rule:nonzero;fill:#9ad0c3;fill-opacity:1;" d="M 152.125 85.605469 C 154.136719 86.707031 155.898438 84.53125 155.101562 82.609375 C 154.761719 81.835938 153.90625 81.339844 153.070312 81.421875 C 151.542969 81.078125 149.296875 84.066406 152.125 85.605469 Z M 152.125 85.605469 "/><path style=" stroke:none;fill-rule:nonzero;fill:#9ad0c3;fill-opacity:1;" d="M 137.015625 103.617188 C 137.460938 104.46875 139.820312 106.382812 142.285156 106.703125 C 143.503906 106.882812 144.683594 106.628906 145.890625 106.402344 C 145.898438 106.40625 145.910156 106.40625 145.921875 106.40625 C 146.324219 106.4375 146.988281 106.480469 147.441406 106.378906 C 147.578125 107.199219 147.773438 108.015625 147.996094 108.832031 C 148.007812 108.871094 148.023438 108.902344 148.042969 108.929688 C 147.785156 111.222656 147.859375 113.757812 148.53125 116.320312 C 147.996094 115.664062 147.414062 115.058594 146.792969 114.496094 C 144.835938 112.175781 143.65625 111.050781 141.859375 110.285156 C 141.863281 110.285156 141.863281 110.285156 141.863281 110.285156 C 141.863281 110.285156 141.859375 110.285156 141.859375 110.285156 C 141.859375 110.285156 141.859375 110.285156 141.859375 110.28125 C 141.859375 110.28125 141.855469 110.28125 141.855469 110.28125 C 141.855469 110.28125 141.855469 110.28125 141.851562 110.28125 C 141.855469 110.28125 141.855469 110.28125 141.855469 110.28125 C 141.855469 110.28125 141.851562 110.28125 141.851562 110.28125 C 140.917969 109.878906 139.8125 109.578125 138.351562 109.25 C 138.324219 109.242188 138.292969 109.238281 138.269531 109.230469 C 138.261719 109.230469 138.253906 109.226562 138.242188 109.226562 C 138.246094 109.257812 138.257812 109.289062 138.277344 109.320312 C 138.371094 109.820312 139.417969 111.308594 140.164062 112.003906 C 142.683594 114.386719 144.371094 114.414062 146.574219 115.699219 C 147.675781 116.808594 148.832031 118.195312 149.390625 118.984375 C 149.882812 120.285156 150.484375 121.535156 151.289062 122.6875 C 151.484375 122.527344 151.675781 122.355469 151.886719 122.214844 C 150.488281 120.117188 148.925781 115.464844 148.777344 112.988281 C 148.730469 112.371094 148.714844 111.742188 148.726562 111.113281 C 148.769531 110.9375 148.828125 110.761719 148.875 110.59375 C 149.121094 109.722656 149.628906 109.023438 150.285156 108.460938 C 151.867188 107.371094 154.355469 107.304688 155.792969 106.804688 C 156.121094 106.691406 156.433594 106.585938 156.699219 106.492188 C 156.703125 106.492188 156.707031 106.492188 156.707031 106.492188 C 156.863281 106.441406 157.015625 106.382812 157.164062 106.316406 C 157.289062 106.269531 157.382812 106.226562 157.441406 106.195312 C 157.488281 106.171875 157.539062 106.152344 157.585938 106.128906 C 157.550781 106.082031 157.5 106.046875 157.433594 106.019531 C 153.550781 104.585938 152.472656 105.050781 150.734375 106.726562 C 150.003906 107.277344 149.335938 107.914062 148.945312 108.453125 C 149.042969 107.765625 149.167969 107.089844 149.320312 106.425781 C 150.605469 103.046875 153.515625 101.152344 153.316406 97.21875 C 150.367188 98.96875 149.023438 102.367188 148.628906 105.777344 C 148.53125 106.148438 148.441406 106.535156 148.359375 106.929688 C 148.125 105.265625 148.109375 103.707031 148.289062 102.257812 C 148.347656 102.050781 148.421875 101.808594 148.523438 101.523438 C 149.746094 98.191406 151.472656 97.09375 152.203125 93.175781 C 151.945312 93.167969 151.070312 93.789062 150.867188 93.949219 C 146.566406 96.898438 146.53125 100.765625 146.925781 103.230469 C 145.84375 102.160156 144.96875 101.078125 144.308594 99.507812 C 141.949219 94.183594 142.160156 94.71875 142.164062 94.722656 C 141.847656 94.226562 141.359375 93.621094 140.910156 93.089844 C 140.832031 92.972656 140.683594 92.824219 140.410156 92.523438 C 140.410156 92.519531 140.410156 92.519531 140.40625 92.515625 C 140.402344 92.511719 140.398438 92.507812 140.398438 92.503906 C 140.144531 93.046875 139.773438 97.617188 142.128906 100.433594 C 143.628906 102.386719 145.136719 103.253906 146.261719 103.949219 C 146.703125 104.300781 147.019531 104.464844 147.195312 104.566406 C 147.222656 104.691406 147.25 104.8125 147.273438 104.917969 C 147.285156 105.117188 147.304688 105.316406 147.324219 105.515625 C 147.074219 105.550781 146.824219 105.578125 146.585938 105.59375 C 146.320312 105.585938 146.011719 105.558594 145.644531 105.492188 C 143.226562 104.976562 141.460938 103.613281 138.109375 103.378906 C 137.933594 103.339844 137.78125 103.328125 137.664062 103.351562 C 137.394531 103.339844 137.121094 103.335938 136.832031 103.34375 C 136.835938 103.488281 136.902344 103.566406 137.015625 103.617188 Z M 137.015625 103.617188 "/><path style=" stroke:none;fill-rule:nonzero;fill:#9ad0c3;fill-opacity:1;" d="M 107.398438 140.542969 C 109.554688 140.894531 111.3125 138.4375 110.605469 136.453125 C 109.867188 134.003906 105.867188 133.34375 104.742188 135.824219 C 104.449219 136.570312 104.253906 137.394531 104.558594 138.171875 C 104.984375 139.386719 106.109375 140.371094 107.398438 140.542969 Z M 107.398438 140.542969 "/><path style=" stroke:none;fill-rule:nonzero;fill:#9ad0c3;fill-opacity:1;" d="M 109.074219 146.433594 C 107.972656 142.347656 101.882812 143.417969 102.390625 147.175781 C 102.261719 148.734375 103.539062 150.757812 105.789062 150.753906 C 108.269531 150.933594 109.542969 148.367188 109.074219 146.433594 Z M 109.074219 146.433594 "/><path style=" stroke:none;fill-rule:nonzero;fill:#9ad0c3;fill-opacity:1;" d="M 227.582031 181.34375 C 223.363281 179.496094 216.59375 179.84375 210.71875 183.417969 C 206.046875 186.453125 203.910156 190.210938 198.667969 196.785156 C 202.734375 193.234375 209.601562 188.652344 217.523438 185.394531 C 218.394531 185.054688 225.445312 182.65625 224.980469 183.449219 C 224.980469 183.449219 224.976562 183.449219 224.976562 183.449219 C 224.390625 183.964844 218.675781 185.394531 211.15625 189.664062 C 205.039062 193.0625 201.351562 196.136719 199.042969 198.375 C 203.1875 197.273438 210.675781 196.128906 215.703125 193.605469 C 215.703125 193.601562 215.707031 193.601562 215.710938 193.601562 C 220.554688 191.148438 225.972656 187.140625 228.539062 182.242188 C 228.816406 181.695312 228.878906 181.96875 227.582031 181.34375 Z M 227.582031 181.34375 "/><path style=" stroke:none;fill-rule:nonzero;fill:#9ad0c3;fill-opacity:1;" d="M 169.027344 192.449219 C 159.605469 188.460938 150.121094 191.667969 149.914062 191.367188 C 149.859375 191.175781 150.683594 190.859375 152.082031 190.578125 C 155.96875 189.398438 160.292969 188.757812 164.300781 189.515625 C 161.386719 187.738281 157.179688 185.609375 153.792969 185.085938 C 143.875 183.804688 140.214844 186.390625 140.425781 185.695312 C 140.488281 185.441406 147.5625 183.402344 150.738281 183.472656 C 138.496094 179.605469 138.800781 180.292969 133.480469 179.824219 C 133.222656 179.785156 133.292969 179.484375 133.554688 179.523438 C 142.09375 179.71875 152.171875 181.738281 164.304688 187.957031 C 154.769531 179.019531 151.046875 179.238281 151 178.722656 C 151.011719 178.527344 151.410156 178.675781 151.523438 178.6875 C 159.875 181.101562 165.953125 188.167969 170 190.976562 C 170.6875 191.503906 171.753906 192.253906 172.925781 193.074219 C 170.742188 189.894531 167.8125 185.671875 161.335938 180.425781 C 155.472656 175.796875 147.382812 174.308594 140.199219 175.105469 C 134.40625 175.816406 129.738281 178.605469 129.746094 178.625 C 129.765625 179.105469 131.015625 181.675781 132.378906 183.546875 C 134.546875 186.484375 136.519531 188.128906 138.617188 189.765625 C 149.382812 198.183594 158.996094 195.59375 168.019531 195.191406 C 171.429688 195.171875 173.382812 195.621094 174.328125 195.875 C 172.59375 194.578125 170.566406 193.207031 169.027344 192.449219 Z M 169.027344 192.449219 "/><path style=" stroke:none;fill-rule:nonzero;fill:#9ad0c3;fill-opacity:1;" d="M 139.0625 158.28125 C 132.046875 159.929688 127.722656 164.308594 127.640625 164.273438 C 127.261719 164.089844 131.585938 159.757812 136.847656 157.867188 C 135.082031 157.570312 133.308594 157.355469 131.578125 157.203125 C 122.382812 158.070312 118.800781 162.085938 118.609375 161.984375 C 117.769531 162.378906 121.742188 158.320312 127.277344 156.953125 C 122.140625 156.796875 115.613281 157.535156 110.578125 159.273438 C 110.414062 159.410156 110.308594 159.078125 110.507812 159.085938 C 117.304688 156.492188 126.328125 155.480469 133.132812 156.117188 C 136.953125 156.390625 139.035156 156.886719 140.46875 157.308594 C 139.628906 156.308594 139.226562 154.859375 139.472656 153.9375 C 128.902344 149.105469 112.492188 154.738281 107.882812 158.960938 C 106.597656 159.25 113.0625 166.675781 124.558594 167.242188 C 133.28125 167.5625 138.359375 164.636719 142.464844 159.121094 C 141.730469 158.902344 140.679688 158.617188 139.0625 158.28125 Z M 139.0625 158.28125 "/><path style=" stroke:none;fill-rule:nonzero;fill:#feead4;fill-opacity:1;" d="M 212.496094 115.675781 C 214.835938 116.382812 216.53125 113.25 214.011719 111.367188 C 213.03125 110.585938 211.460938 110.574219 210.746094 111.710938 C 209.675781 113.253906 210.820312 115.238281 212.496094 115.675781 Z M 212.496094 115.675781 "/><path style=" stroke:none;fill-rule:nonzero;fill:#feead4;fill-opacity:1;" d="M 205.953125 158.871094 C 204.707031 158.386719 203.085938 158.914062 202.546875 160.1875 C 201.796875 161.710938 202.644531 164.003906 204.492188 164.085938 C 207.546875 164.492188 209.269531 159.851562 205.953125 158.871094 Z M 205.953125 158.871094 "/><path style=" stroke:none;fill-rule:nonzero;fill:#feead4;fill-opacity:1;" d="M 169.578125 130.402344 C 171.050781 131.621094 173.617188 131.109375 174.554688 129.453125 C 175.457031 127.738281 174.675781 125.144531 172.710938 124.601562 C 168.746094 123.238281 167.222656 128.4375 169.578125 130.402344 Z M 169.578125 130.402344 "/><path style=" stroke:none;fill-rule:nonzero;fill:#feead4;fill-opacity:1;" d="M 152.078125 153.65625 C 151.21875 155.265625 152.324219 157.191406 154.105469 157.386719 C 155.902344 157.601562 157.167969 155.488281 156.570312 153.890625 C 155.855469 151.707031 153.050781 151.605469 152.078125 153.65625 Z M 152.078125 153.65625 "/><path style=" stroke:none;fill-rule:nonzero;fill:#feead4;fill-opacity:1;" d="M 157.117188 157.929688 C 156.414062 158.597656 155.472656 159.027344 154.359375 159.09375 C 154.113281 161.582031 155.179688 163.65625 155.164062 163.765625 C 155.007812 163.761719 153.886719 161.765625 153.84375 159.101562 C 153.765625 159.0625 152.710938 159.183594 151.589844 158.304688 C 149.695312 160.035156 149.1875 162.488281 149.039062 162.503906 C 148.894531 162.46875 149.390625 160.261719 150.773438 158.363281 C 151.371094 157.429688 151.070312 158.28125 150.453125 156.84375 C 147.1875 158.074219 145.472656 159.207031 144.429688 160.238281 C 141.113281 164.140625 141.976562 167.734375 143.984375 168.484375 C 146.070312 169.113281 148.804688 167.636719 149.476562 168.09375 C 149.847656 168.15625 149.976562 171.875 153.128906 172.292969 C 155.25 172.484375 157.523438 171.589844 158.800781 169.835938 C 160.160156 167.929688 160.152344 165.5625 160.34375 163.871094 C 160.25 162.824219 159.816406 160.980469 157.117188 157.929688 Z M 157.117188 157.929688 "/><path style=" stroke:none;fill-rule:nonzero;fill:#feead4;fill-opacity:1;" d="M 144.644531 158.175781 C 145.242188 158.242188 145.710938 158.21875 146.046875 158.171875 C 147.144531 157.46875 148.53125 156.796875 150.261719 156.277344 C 150.144531 155.859375 150.066406 155.425781 150.039062 154.992188 C 147.804688 154.273438 146.617188 154.425781 145.339844 154.414062 C 145.265625 154.453125 145.210938 154.332031 145.292969 154.3125 C 145.652344 154.269531 147.773438 153.65625 150.035156 154.257812 C 150.046875 154.109375 150.066406 153.960938 150.089844 153.8125 C 145.890625 151.195312 144.859375 151.628906 144.996094 151.335938 C 145.0625 151.191406 146.8125 151.539062 147.25 151.664062 C 152.265625 152.976562 149.285156 153.375 151.257812 151.539062 C 150.140625 149.859375 148.992188 148.464844 147 147.003906 C 146.933594 146.972656 146.976562 146.90625 147.019531 146.925781 C 148.105469 147.191406 151.371094 150.15625 152.125 150.933594 C 153.808594 150.023438 155.332031 150.453125 155.773438 150.621094 C 155.769531 150.617188 155.765625 150.617188 155.761719 150.617188 C 156.9375 147.636719 156.992188 146.207031 156.644531 145.25 C 155.246094 142.914062 153.167969 143.9375 151.921875 144.386719 C 149.9375 145 147.742188 142.339844 144.917969 142.070312 C 140.140625 141.855469 138.472656 145.492188 141.027344 149.351562 C 141.507812 150.152344 142.507812 151.222656 141.625 152.101562 C 141.128906 152.535156 140.484375 152.949219 140.242188 153.609375 C 139.976562 154.207031 140.097656 154.875 140.375 155.445312 C 141.554688 158.015625 145.164062 158.265625 144.644531 158.175781 Z M 144.644531 158.175781 "/><path style=" stroke:none;fill-rule:nonzero;fill:#feead4;fill-opacity:1;" d="M 166.328125 150.796875 C 162.484375 150.847656 165.644531 147.738281 165.285156 145.933594 C 165.160156 143.957031 162.871094 142.394531 159.941406 144.171875 C 159.785156 144.296875 159.613281 144.4375 159.425781 144.601562 C 157.363281 146.289062 157.890625 148.039062 156.554688 150.925781 C 157.464844 151.375 158.03125 152.339844 158.359375 153.292969 C 158.503906 153.957031 158.472656 154.234375 158.496094 154.339844 C 162.207031 154.351562 164.023438 152.90625 163.75 153.304688 C 162.457031 154.203125 160.054688 155.097656 158.460938 155.160156 C 158.421875 155.503906 158.34375 155.839844 158.238281 156.15625 C 160.304688 157.230469 162.261719 157.171875 162.34375 157.3125 C 162.34375 157.429688 160.144531 157.675781 157.976562 156.777344 C 157.835938 157.050781 157.667969 157.304688 157.480469 157.539062 C 158.984375 159.15625 159.023438 159.269531 159.105469 159.347656 C 160.542969 160.820312 161.660156 161.449219 162.496094 161.769531 C 164.515625 162.019531 166.585938 162.460938 168.578125 161.824219 C 174.492188 159.816406 172.796875 150.667969 166.328125 150.796875 Z M 166.328125 150.796875 "/><path style=" stroke:none;fill-rule:nonzero;fill:#feead4;fill-opacity:1;" d="M 211.210938 109.371094 C 212.296875 109.09375 213.535156 109.335938 214.640625 110.007812 C 216.691406 108.675781 217.457031 106.710938 217.46875 106.695312 C 217.535156 106.554688 217.707031 106.589844 217.613281 106.828125 C 217.636719 107.300781 216.917969 109.464844 215.589844 110.726562 C 215.777344 110.902344 216.160156 111.289062 216.285156 111.515625 C 218.125 110.820312 219.996094 109.710938 221.070312 108.078125 C 221.179688 107.871094 221.371094 107.988281 221.261719 108.195312 C 220.644531 109.503906 218.601562 111.65625 216.703125 112.597656 C 216.734375 112.730469 216.761719 112.867188 216.785156 113.003906 C 218.707031 113.386719 220.59375 114.238281 224.351562 113.195312 C 226.3125 112.410156 227.3125 110.480469 226.941406 108.210938 C 226.652344 106.492188 225.097656 105.503906 223.734375 104.640625 C 221.863281 103.15625 222.878906 99.699219 219.585938 100.371094 C 218.238281 100.578125 217.613281 99.492188 216.949219 98.523438 C 215.191406 95.894531 210.625 96.976562 209.402344 101.265625 C 208.957031 104.125 209.765625 107.011719 211.210938 109.371094 Z M 211.210938 109.371094 "/><path style=" stroke:none;fill-rule:nonzero;fill:#feead4;fill-opacity:1;" d="M 199.132812 115.476562 C 201.832031 116.457031 205.320312 116.710938 208.710938 114.90625 C 208.652344 114.734375 208.605469 114.566406 208.570312 114.390625 C 205.910156 114.3125 201.867188 112.632812 200.230469 111.300781 C 199.992188 110.722656 203.316406 113.402344 208.453125 113.246094 C 208.496094 110.390625 210.027344 113.875 204.820312 108.734375 C 204.792969 108.699219 204.46875 108.453125 204.628906 108.433594 C 204.679688 108.429688 207.097656 110.171875 209.082031 111.03125 C 209.382812 110.511719 209.761719 110.109375 210.191406 109.824219 C 208.902344 105.335938 207.160156 103.558594 206.578125 102.84375 C 205.609375 101.613281 205.75 101.894531 204.929688 101.210938 C 200.753906 98.324219 196.949219 99.929688 197.007812 103.242188 C 196.953125 104.253906 197.394531 105.179688 197.613281 106.144531 C 198.039062 108.425781 195.640625 107.597656 194.917969 109.546875 C 194.625 110.742188 195.28125 112.128906 196.003906 113.0625 C 196.820312 114.128906 197.925781 114.917969 199.132812 115.476562 Z M 199.132812 115.476562 "/><path style=" stroke:none;fill-rule:nonzero;fill:#feead4;fill-opacity:1;" d="M 225.824219 116.652344 C 225.421875 116.289062 224.988281 115.980469 224.527344 115.710938 C 222.160156 114.847656 219.339844 114.433594 217 114.261719 C 218.160156 114.691406 220.480469 116.398438 220.441406 116.582031 C 220.464844 116.65625 220.332031 116.636719 220.257812 116.601562 C 218.632812 115.601562 217.441406 115.457031 216.710938 115.234375 C 216.625 115.597656 216.480469 115.929688 216.285156 116.226562 C 217.859375 118.640625 217.699219 118.167969 219.351562 119.449219 C 219.425781 119.582031 219.25 119.613281 219.164062 119.542969 C 218.753906 119.3125 217.195312 118.878906 215.4375 117.121094 C 214.960938 117.476562 214.402344 117.722656 213.816406 117.84375 C 214.578125 119.792969 215.699219 121.507812 216.351562 122.1875 C 217.804688 123.546875 214.238281 121.503906 212.621094 117.917969 C 212.226562 117.882812 211.785156 117.855469 211.1875 117.621094 C 209.164062 120.410156 205.371094 122.816406 205.128906 122.761719 C 204.703125 122.628906 208.191406 120.570312 210.175781 117.046875 C 208.40625 115.652344 210.253906 115.828125 207.820312 116.519531 C 202.785156 117.976562 201.753906 115.976562 199.472656 117.925781 C 198.199219 119.234375 197.902344 121.367188 198.914062 122.953125 C 199.625 123.992188 200.90625 124.3125 202.089844 124.453125 C 204.105469 124.644531 202.355469 126.765625 205.578125 129.605469 C 209.472656 132.671875 213.195312 128.691406 214 128.214844 C 215.789062 127.511719 216.386719 128.898438 218.4375 129.398438 C 219.863281 129.597656 221.453125 129.007812 222.335938 127.855469 C 222.9375 127.097656 223.078125 126.125 223.34375 125.222656 C 223.683594 124.375 224.570312 123.988281 225.328125 123.59375 C 228.117188 122.167969 228.777344 119.371094 225.824219 116.652344 Z M 225.824219 116.652344 "/><path style=" stroke:none;fill-rule:nonzero;fill:#feead4;fill-opacity:1;" d="M 183.53125 97.179688 C 192.117188 107.105469 196.128906 128.175781 195.226562 141.734375 C 195.175781 142.609375 194.886719 142.410156 196.15625 142.394531 C 197.054688 135.902344 196.070312 122.394531 192.457031 111.503906 C 191.898438 107.738281 192.617188 101.078125 193.621094 97.027344 C 194.644531 97.164062 195.691406 96.601562 196.320312 95.8125 C 197.867188 93.757812 198.574219 87.203125 194.886719 87.328125 C 194.1875 87.117188 192.820312 87.503906 191.90625 88.871094 C 190.507812 90.863281 190.261719 95.183594 192.546875 96.625 C 191.585938 99.722656 191.144531 103.394531 191.089844 106.316406 C 188.863281 98.390625 188.449219 94.839844 188.28125 90.683594 C 191.90625 89.382812 191.492188 81.777344 187.65625 81.289062 C 187.136719 81.210938 186.648438 81.378906 186.160156 81.515625 C 183.09375 82.367188 183.125 90.605469 187.40625 90.816406 C 187.195312 100.410156 190.371094 106.164062 188.382812 102.3125 C 187.304688 100.261719 185.394531 97.710938 184.226562 96.464844 C 185.800781 94.15625 183.457031 90.195312 181.785156 88.878906 C 179.699219 87.285156 176.535156 87.730469 176.496094 90.421875 C 175.707031 94.519531 180.808594 99.132812 183.53125 97.179688 Z M 183.53125 97.179688 "/><path style=" stroke:none;fill-rule:nonzero;fill:#feead4;fill-opacity:1;" d="M 225.511719 131.722656 C 226.183594 132.15625 225.671875 132.085938 226.570312 131.753906 C 231.289062 129.59375 235.488281 126.175781 238.742188 122.222656 C 240.535156 122.542969 244.390625 122.128906 246.738281 120.917969 C 247.242188 120.625 246.859375 119.855469 246.324219 120.070312 C 243.328125 121.175781 241 121.222656 239.535156 121.226562 C 241.214844 119.039062 242.601562 116.714844 243.632812 114.363281 C 243.78125 114.234375 244.011719 114.039062 244.488281 113.761719 C 245.820312 113.089844 247.320312 112.871094 248.675781 112.257812 C 251.78125 110.785156 249.953125 108.03125 246.957031 109.773438 C 246.101562 110.273438 245.328125 110.925781 244.683594 111.585938 C 245.25 109.789062 245.59375 108.003906 245.679688 106.28125 C 245.695312 106.019531 245.445312 105.800781 245.195312 105.800781 C 244.070312 105.84375 245.105469 114.796875 234.371094 124.746094 C 234.320312 124.523438 234.273438 124.300781 234.234375 124.074219 C 235.804688 119.832031 239.496094 117.613281 239.398438 115.304688 C 239.136719 112.59375 235.394531 113.746094 233.84375 119.972656 C 233.773438 117.699219 233.894531 115.382812 234.015625 113.414062 C 234.324219 108.441406 235.652344 107.613281 235.0625 107.335938 C 234.945312 107.289062 234.792969 107.332031 234.734375 107.445312 C 233.699219 109.675781 232.6875 111.238281 232.492188 117.597656 C 232.503906 120.234375 232.578125 123.03125 233.488281 125.542969 C 231.746094 127.070312 229.726562 128.617188 227.367188 130.15625 C 224.804688 131.839844 224.890625 131.324219 225.511719 131.722656 Z M 225.511719 131.722656 "/><path style=" stroke:none;fill-rule:nonzero;fill:#feead4;fill-opacity:1;" d="M 225.230469 140.347656 C 225.820312 141.042969 226.410156 141.746094 226.945312 142.488281 C 226.527344 143.566406 226.683594 144.578125 227.214844 145.4375 C 223.757812 148.207031 227.144531 145.53125 222.683594 149.117188 C 222.898438 149.339844 223.097656 149.566406 223.296875 149.800781 C 224.351562 149.121094 227.164062 146.757812 227.828125 146.160156 C 228.457031 146.703125 229.257812 146.863281 229.941406 146.796875 C 230.359375 147.632812 230.738281 148.472656 231.085938 149.34375 C 226.972656 151.839844 230.175781 159.117188 235.140625 155.558594 C 237.667969 153.8125 237.359375 150.496094 235.195312 149.441406 C 234.222656 148.691406 233.128906 148.5625 231.996094 148.929688 C 231.707031 148.09375 231.347656 147.289062 230.882812 146.542969 C 231.824219 146.128906 232.59375 145.269531 232.917969 144.285156 C 236.242188 144.425781 235.742188 144.144531 235.824219 144.671875 C 236.058594 146.226562 237.25 147.71875 238.84375 147.992188 C 242.65625 148.628906 246.230469 142.925781 241.394531 140.054688 C 239.527344 138.769531 236.476562 139.832031 235.859375 143.121094 C 234.933594 143.125 234.003906 143.148438 233.078125 143.171875 C 233.039062 142.152344 232.472656 141.132812 231.570312 140.644531 C 231.585938 140.652344 232.210938 139.261719 232.773438 137.746094 C 234.777344 138.566406 236.792969 137.425781 237.488281 136.109375 C 237.945312 135.101562 238.121094 133.722656 237.703125 132.679688 C 237.269531 131.800781 236.429688 131.164062 235.5625 130.757812 C 231.625 128.542969 228.375 134.535156 231.855469 137.21875 C 231.847656 137.238281 230.5625 140.324219 230.554688 140.34375 C 229.398438 140.1875 228.214844 140.589844 227.425781 141.625 C 226.964844 140.953125 226.460938 140.3125 225.917969 139.699219 C 229.816406 135.605469 223.117188 130.925781 220.273438 134.800781 C 217.023438 139.113281 221.644531 143.367188 225.230469 140.347656 Z M 225.230469 140.347656 "/><path style=" stroke:none;fill-rule:nonzero;fill:#feead4;fill-opacity:1;" d="M 232.71875 187.203125 C 232.230469 188.207031 233.011719 189.46875 234.117188 189.511719 C 235.042969 189.625 235.964844 188.761719 235.804688 187.824219 C 235.921875 186.015625 233.414062 185.652344 232.71875 187.203125 Z M 232.71875 187.203125 "/><path style=" stroke:none;fill-rule:nonzero;fill:#feead4;fill-opacity:1;" d="M 258.320312 142.757812 C 257.074219 143.667969 257.519531 145.578125 259.035156 145.867188 C 260.242188 146.179688 261.832031 145.347656 261.671875 143.960938 C 261.507812 142.433594 259.449219 141.90625 258.320312 142.757812 Z M 258.320312 142.757812 "/><path style=" stroke:none;fill-rule:nonzero;fill:#feead4;fill-opacity:1;" d="M 199.460938 190.34375 C 200.921875 190.480469 202.175781 188.859375 201.722656 187.472656 C 201.132812 185.847656 198.921875 186.03125 198.222656 187.476562 C 197.613281 188.625 198.003906 190.226562 199.460938 190.34375 Z M 199.460938 190.34375 "/><path style=" stroke:none;fill-rule:nonzero;fill:#feead4;fill-opacity:1;" d="M 191.714844 181.84375 C 191.601562 180.898438 190.859375 180.03125 189.914062 179.851562 C 189.175781 179.726562 187.960938 180.140625 187.414062 181.042969 C 186.566406 182.289062 187.023438 184.328125 188.570312 184.746094 C 190.234375 185.144531 191.996094 183.546875 191.714844 181.84375 Z M 191.714844 181.84375 "/><path style=" stroke:none;fill-rule:nonzero;fill:#feead4;fill-opacity:1;" d="M 185.46875 154.746094 C 185.683594 152.746094 183.691406 151.566406 181.964844 152.46875 C 180.671875 153.058594 179.945312 155.273438 182.300781 156.71875 C 183.695312 157.546875 185.351562 156.207031 185.46875 154.746094 Z M 185.46875 154.746094 "/><path style=" stroke:none;fill-rule:nonzero;fill:#feead4;fill-opacity:1;" d="M 200.296875 142.078125 C 200.308594 142.070312 200.613281 141.957031 200.933594 141.828125 C 200.996094 141.828125 201.046875 141.8125 201.09375 141.761719 C 201.203125 141.71875 201.304688 141.675781 201.394531 141.636719 C 201.628906 140.75 201.875 139.902344 202.152344 139.066406 C 202.800781 137.519531 203.914062 135.152344 205.933594 131.574219 C 205.832031 131.535156 205.726562 131.492188 205.625 131.449219 C 205.613281 131.445312 205.601562 131.4375 205.589844 131.433594 C 205.496094 131.390625 205.40625 131.347656 205.316406 131.300781 C 205.257812 131.273438 205.203125 131.242188 205.148438 131.210938 C 200.910156 136.378906 200.140625 142.140625 200.296875 142.078125 Z M 200.296875 142.078125 "/><path style=" stroke:none;fill-rule:nonzero;fill:#feead4;fill-opacity:1;" d="M 237.640625 98.53125 C 238.660156 99.035156 239.941406 98.351562 240.363281 97.359375 C 240.988281 95.757812 239.402344 94.539062 237.910156 95.167969 C 236.367188 95.738281 236.136719 97.773438 237.640625 98.53125 Z M 237.640625 98.53125 "/><path style=" stroke:none;fill-rule:nonzero;fill:#feead4;fill-opacity:1;" d="M 202.46875 89.042969 C 203.832031 89.972656 205.820312 89.195312 206.605469 87.851562 C 207.910156 85.703125 204.9375 83.25 202.96875 84.628906 C 201.046875 85.574219 201.109375 88.054688 202.46875 89.042969 Z M 202.46875 89.042969 "/><path style=" stroke:none;fill-rule:nonzero;fill:#feead4;fill-opacity:1;" d="M 160.242188 104.742188 C 159.601562 94.933594 162.113281 92.007812 161.949219 91.304688 C 161.921875 91.15625 161.71875 91.046875 161.550781 91.097656 C 161.390625 91.148438 161.320312 91.21875 160.8125 92.207031 C 159.832031 94.128906 159.191406 95.714844 158.914062 99.765625 C 158.8125 101.382812 158.789062 103.105469 159.0625 104.726562 C 160.105469 104.78125 160.261719 104.933594 160.242188 104.742188 Z M 160.242188 104.742188 "/><path style=" stroke:none;fill-rule:nonzero;fill:#feead4;fill-opacity:1;" d="M 125.546875 123.453125 C 125.566406 123.480469 125.589844 123.507812 125.613281 123.53125 C 127.613281 127.183594 130.050781 130.972656 133.007812 134.738281 C 135.191406 137.378906 137.617188 139.878906 140.375 141.929688 C 140.59375 141.683594 141.078125 141.480469 141.386719 141.359375 C 135.871094 136.929688 131.160156 130.785156 127.449219 124.351562 C 126.777344 122.945312 126.125 121.4375 125.773438 120.351562 C 124.328125 116.0625 125.199219 112.6875 126.609375 108.8125 C 126.703125 108.507812 127.152344 108.136719 126.804688 107.855469 C 126.210938 107.515625 125.816406 108.96875 125.625 109.378906 C 124.246094 112.585938 123.789062 115.445312 124.332031 118.402344 C 120.722656 110.796875 118.578125 103.402344 118.234375 98.53125 C 118.152344 97.769531 118.183594 97.355469 117.792969 97.367188 C 116.847656 97.386719 117.601562 106.453125 122.894531 118.101562 C 121.394531 116.429688 119.417969 114.773438 116.277344 112.71875 C 116.042969 112.589844 115.746094 112.308594 115.488281 112.558594 C 114.71875 113.472656 120.515625 115.074219 125.546875 123.453125 Z M 125.546875 123.453125 "/><path style=" stroke:none;fill-rule:nonzero;fill:#feead4;fill-opacity:1;" d="M 116.222656 145.109375 C 119.941406 144.804688 121.671875 145.777344 122.535156 146.109375 C 124.003906 146.914062 125.507812 147.972656 127.105469 149.566406 C 128.421875 149.230469 128.039062 149.605469 127.390625 148.714844 C 123.375 144.585938 120.21875 144.253906 115.234375 142.054688 C 110.914062 140.15625 108.1875 137.375 107.972656 137.25 C 107.761719 137.15625 107.527344 137.359375 107.574219 137.578125 C 107.628906 137.800781 107.847656 137.984375 108 138.160156 C 111.96875 141.921875 115.203125 143.101562 118.308594 144.269531 C 113.238281 144.019531 106.449219 146.039062 107.148438 146.867188 C 107.519531 147.367188 109.0625 145.683594 116.222656 145.109375 Z M 116.222656 145.109375 "/><path style=" stroke:none;fill-rule:nonzero;fill:#feead4;fill-opacity:1;" d="M 160.765625 167.476562 C 161.285156 170.089844 164.25 173.625 168.027344 174.71875 C 168.027344 174.71875 168.027344 174.71875 168.023438 174.71875 C 168.027344 174.71875 168.03125 174.71875 168.03125 174.71875 C 168.039062 174.722656 168.046875 174.726562 168.054688 174.726562 C 168.039062 174.726562 168.449219 174.925781 170.664062 175.246094 C 171.15625 175.3125 171.09375 175.394531 170.792969 174.949219 C 170.0625 173.859375 169.855469 173.246094 168.769531 172.066406 C 166.523438 169.636719 164.054688 167.398438 160.757812 167.332031 C 160.730469 167.332031 160.730469 167.304688 160.765625 167.476562 Z M 160.765625 167.476562 "/><path style=" stroke:none;fill-rule:nonzero;fill:#feead4;fill-opacity:1;" d="M 173.886719 182.464844 C 173.902344 182.367188 173.882812 182.265625 173.8125 182.1875 C 173.261719 181.546875 172.652344 180.527344 171.390625 179.367188 C 168.96875 177.109375 165.167969 177 164.566406 177.542969 C 166.246094 181.234375 169.835938 182.433594 173.886719 182.464844 Z M 173.886719 182.464844 "/><path style=" stroke:none;fill-rule:nonzero;fill:#feead4;fill-opacity:1;" d="M 196.84375 180.980469 C 190.933594 189.128906 187.410156 200.746094 185.804688 210.722656 C 185.933594 198.78125 184.75 182.65625 182.25 172.660156 C 180.300781 164.492188 175.714844 155.191406 174.507812 153.570312 C 174.492188 153.574219 173.8125 153.699219 173.792969 153.691406 C 173.691406 153.710938 173.773438 153.339844 175.742188 157.542969 C 177.59375 161.207031 178.804688 165.144531 180.085938 169.03125 C 181.839844 174.816406 182.667969 180.828125 183.164062 186.835938 C 185.191406 206.039062 183.203125 188.042969 179.1875 176.261719 C 178.113281 172.988281 177.015625 171.09375 176.90625 171.09375 C 176.90625 171.09375 176.90625 171.09375 176.90625 171.089844 L 176.902344 171.089844 C 176.902344 170.984375 174.507812 167.359375 170.917969 163.714844 C 170.917969 167.710938 170.726562 168.835938 172.207031 172.996094 C 174.597656 180.164062 179.34375 186.707031 181.617188 191.816406 C 183.613281 196.703125 181.566406 190.359375 176.308594 186.710938 C 174.523438 185.472656 172.507812 184.382812 172.1875 184.332031 C 172.328125 184.792969 172.503906 185.769531 172.851562 186.6875 C 172.851562 186.6875 172.851562 186.6875 172.851562 186.691406 C 172.851562 186.695312 172.851562 186.695312 172.851562 186.695312 C 172.851562 186.695312 172.851562 186.699219 172.851562 186.699219 C 172.855469 186.699219 172.855469 186.699219 172.855469 186.703125 C 172.855469 186.703125 172.855469 186.703125 172.855469 186.707031 C 172.855469 186.835938 173.535156 188.410156 174.265625 189.640625 C 178.066406 196.011719 181.023438 197.171875 183.917969 199.917969 C 184.492188 202.242188 184.4375 215.425781 184.640625 217.9375 C 186.027344 218.234375 185.046875 219.15625 186.214844 214.105469 C 186.859375 211.34375 188.691406 209.171875 189.949219 207.582031 C 191.222656 205.96875 195.214844 200.011719 195.808594 196.683594 C 195.914062 196.277344 195.566406 195.878906 195.167969 196.121094 C 192.347656 198.375 189.714844 201.804688 188.457031 204.210938 C 191.726562 190.695312 195.148438 185.464844 197.367188 181.382812 C 196.796875 180.882812 196.886719 180.925781 196.84375 180.980469 Z M 176.90625 171.089844 Z M 172.851562 186.691406 Z M 172.851562 186.695312 Z M 172.851562 186.695312 "/><path style=" stroke:none;fill-rule:nonzero;fill:#feead4;fill-opacity:1;" d="M 115.917969 180.382812 C 114.789062 177.785156 110.769531 176.273438 108.375 179.128906 C 105.835938 182.015625 107.796875 186.285156 110.980469 186.847656 C 114.746094 187.453125 117.355469 183.832031 115.917969 180.382812 Z M 111.625 185.246094 C 109.628906 184.847656 108.453125 182.285156 109.488281 180.523438 C 110.097656 179.492188 111.34375 178.792969 112.546875 179.011719 C 116.535156 179.859375 115.328125 186.089844 111.625 185.246094 Z M 111.625 185.246094 "/><path style=" stroke:none;fill-rule:nonzero;fill:#feead4;fill-opacity:1;" d="M 140.765625 150.992188 C 140.578125 149.847656 138.980469 148.140625 139.03125 145.929688 C 138.324219 145.476562 137.164062 144.511719 136.0625 143.820312 C 135.355469 143.347656 132.429688 141.894531 134.320312 142.488281 C 135.628906 142.84375 138.054688 144.03125 139.15625 144.964844 C 139.398438 143.929688 139.878906 143.371094 140.488281 142.914062 C 137.667969 141.394531 135.292969 141.324219 132.117188 141.433594 C 132.125 141.816406 132.574219 143.351562 132.6875 143.710938 C 133.859375 147.808594 136.460938 151.058594 140.097656 152.632812 C 140.554688 152.007812 140.875 151.816406 140.765625 150.992188 Z M 140.765625 150.992188 "/><path style=" stroke:none;fill-rule:nonzero;fill:#feead4;fill-opacity:1;" d="M 239.449219 161.53125 C 235.867188 160.667969 228.652344 161.054688 224.875 163.28125 C 224.039062 163.664062 223.472656 164.109375 223.125 164.609375 C 224.183594 164.632812 225.609375 164.800781 227.148438 165.089844 C 228.3125 164.4375 232.28125 163.488281 234.628906 164.054688 C 234.738281 164.058594 234.792969 164.046875 234.804688 164.105469 C 234.832031 164.136719 234.816406 164.199219 234.761719 164.1875 C 235.085938 164.265625 231.914062 163.9375 228.425781 165.355469 C 235.996094 167.050781 237.484375 169.648438 236.6875 169.078125 C 234.785156 167.90625 232.609375 166.800781 227.773438 166.078125 C 228.554688 167.007812 229.441406 167.832031 230.3125 168.679688 C 233.789062 172 233.089844 170.929688 234.328125 171.964844 C 235.152344 172.503906 231.898438 171.871094 226.46875 166.035156 C 226.417969 165.984375 226.378906 165.9375 226.34375 165.890625 C 224.542969 165.6875 223.429688 165.648438 222.71875 165.644531 C 222.222656 169.484375 231.191406 175.089844 235.777344 176.238281 C 238.515625 176.875 240.574219 174.121094 237.296875 171.199219 C 239.296875 171.125 240.519531 169.703125 238.988281 168 C 243.257812 167.535156 243.605469 162.59375 239.449219 161.53125 Z M 239.449219 161.53125 "/><path style=" stroke:none;fill-rule:nonzero;fill:#feead4;fill-opacity:1;" d="M 264.234375 237.640625 C 264.164062 237.5 264.09375 237.359375 264.023438 237.21875 C 264.484375 237.101562 263.675781 236.082031 262.652344 231.03125 C 261.703125 226.632812 260.410156 216.703125 260.59375 208.214844 C 256.929688 208.339844 252.128906 208.347656 248.925781 208.199219 C 246.988281 208.136719 245.050781 208.328125 243.113281 208.257812 C 234.71875 208.105469 226.3125 207.621094 213.222656 209.941406 C 208.265625 210.773438 203.257812 212.089844 199.078125 214.988281 C 197.980469 215.738281 196.863281 216.464844 195.890625 217.375 C 195.136719 218.078125 194.9375 218.554688 194.570312 218.320312 C 193.945312 217.726562 196.34375 215.75 197.105469 215.207031 C 209.523438 205.71875 235.128906 206.820312 248.035156 206.796875 C 256.179688 206.96875 255.621094 206.6875 260.628906 207.046875 C 260.921875 199.597656 262.199219 198.394531 261.558594 198.363281 C 260.539062 198.316406 244.546875 197.785156 230.105469 198.175781 C 217.480469 198.675781 214.390625 199.746094 209.714844 200.976562 C 195.632812 204.789062 187.726562 213.371094 185.101562 222.574219 C 185.09375 222.59375 185.089844 222.609375 185.085938 222.628906 C 185.082031 222.609375 185.078125 222.59375 185.074219 222.574219 C 182.445312 213.371094 174.539062 204.789062 160.460938 200.976562 C 155.78125 199.746094 152.695312 198.675781 140.066406 198.175781 C 125.625 197.785156 109.632812 198.316406 108.613281 198.363281 C 107.976562 198.394531 109.253906 199.597656 109.542969 207.046875 C 114.550781 206.6875 113.992188 206.96875 122.140625 206.796875 C 135.042969 206.820312 160.652344 205.71875 173.070312 215.207031 C 173.828125 215.75 176.226562 217.726562 175.605469 218.320312 C 175.238281 218.554688 175.035156 218.078125 174.285156 217.375 C 173.3125 216.464844 172.191406 215.738281 171.097656 214.988281 C 166.914062 212.089844 161.90625 210.773438 156.949219 209.941406 C 143.859375 207.621094 135.457031 208.105469 127.0625 208.257812 C 125.121094 208.328125 123.1875 208.136719 121.246094 208.199219 C 118.042969 208.347656 113.242188 208.339844 109.578125 208.214844 C 109.761719 216.703125 108.472656 226.632812 107.523438 231.03125 C 106.496094 236.082031 105.691406 237.101562 106.152344 237.21875 C 106.082031 237.359375 106.011719 237.5 105.941406 237.640625 C 104.570312 239.976562 121.910156 237.261719 140.285156 236.714844 C 141.171875 236.703125 166.871094 236.6875 171.289062 238.324219 C 173.476562 239.164062 174.195312 241.523438 180.71875 241.875 C 182.875 241.988281 184.261719 242.179688 185.085938 241.609375 C 185.910156 242.179688 187.296875 241.988281 189.453125 241.875 C 195.980469 241.523438 196.695312 239.164062 198.886719 238.324219 C 203.304688 236.6875 229 236.703125 229.886719 236.714844 C 248.265625 237.261719 265.605469 239.976562 264.234375 237.640625 Z M 106.804688 235.589844 C 106.753906 235.792969 106.695312 235.988281 106.621094 236.175781 C 106.9375 235.078125 106.832031 235.515625 106.804688 235.589844 Z M 117.398438 213.722656 C 117.664062 213.699219 117.925781 213.660156 118.1875 213.617188 C 122.734375 212.910156 119.675781 213.125 125.257812 212.746094 C 127.011719 212.636719 128.757812 212.449219 130.515625 212.347656 C 132.195312 212.285156 133.875 212.308594 135.554688 212.25 C 145.980469 211.542969 161.742188 213.832031 168.488281 218.683594 C 169.019531 219.089844 172.175781 220.761719 171.402344 221.527344 C 170.300781 222.441406 165.085938 213.109375 134.929688 213.242188 C 129.800781 213.007812 120.316406 213.554688 117.421875 213.953125 C 117.273438 213.96875 117.25 213.734375 117.398438 213.722656 Z M 133.507812 230.675781 C 132.875 230.917969 128.308594 230.621094 126.65625 230.667969 C 124.769531 230.6875 122.878906 230.792969 120.992188 230.679688 C 119.464844 230.59375 117.945312 230.808594 116.417969 230.804688 C 115.207031 230.816406 113.996094 230.742188 112.785156 230.785156 C 112.640625 230.761719 111.90625 230.863281 111.980469 230.613281 C 112.019531 230.488281 120.429688 229.859375 120.546875 229.851562 C 128.542969 229.558594 128.902344 229.761719 132.757812 230 C 132.972656 230.027344 133.191406 230.027344 133.402344 230.074219 C 133.707031 230.171875 133.800781 230.503906 133.507812 230.675781 Z M 143.921875 218.175781 C 143.75 218.847656 143.882812 218.304688 131.707031 218.140625 C 131.222656 218.132812 130.738281 218.074219 130.253906 218.046875 C 130.046875 218.019531 129.582031 218.191406 129.542969 217.84375 C 129.527344 217.507812 129.863281 217.59375 131.253906 217.628906 C 137.039062 217.515625 136.460938 217.460938 143.292969 217.6875 C 143.566406 217.664062 143.980469 217.84375 143.921875 218.175781 Z M 173.019531 231.851562 C 172.277344 232.511719 172.265625 231.253906 169.105469 229.546875 C 162.886719 226.1875 152.804688 225.320312 145.890625 225.917969 C 145.816406 225.925781 145.75 225.875 145.742188 225.796875 C 145.710938 225.5 165.890625 222.796875 172.726562 230.828125 C 172.992188 231.089844 173.28125 231.492188 173.019531 231.851562 Z M 201.6875 218.683594 C 208.429688 213.832031 224.191406 211.542969 234.617188 212.25 C 236.296875 212.308594 237.980469 212.285156 239.660156 212.347656 C 241.414062 212.449219 243.164062 212.636719 244.917969 212.746094 C 250.5 213.125 247.4375 212.910156 251.984375 213.617188 C 252.246094 213.660156 252.511719 213.699219 252.777344 213.722656 C 252.925781 213.734375 252.902344 213.96875 252.75 213.953125 C 249.855469 213.554688 240.375 213.007812 235.246094 213.242188 C 205.085938 213.109375 199.871094 222.441406 198.769531 221.527344 C 198 220.761719 201.15625 219.089844 201.6875 218.683594 Z M 224.28125 225.917969 C 217.371094 225.320312 207.285156 226.1875 201.066406 229.546875 C 197.90625 231.253906 197.898438 232.511719 197.152344 231.851562 C 196.890625 231.492188 197.179688 231.089844 197.445312 230.828125 C 204.28125 222.796875 224.460938 225.5 224.429688 225.796875 C 224.421875 225.875 224.355469 225.925781 224.28125 225.917969 Z M 226.253906 218.175781 C 226.191406 217.84375 226.609375 217.664062 226.878906 217.6875 C 233.714844 217.460938 233.136719 217.515625 238.917969 217.628906 C 240.308594 217.59375 240.648438 217.507812 240.628906 217.84375 C 240.59375 218.191406 240.128906 218.019531 239.917969 218.046875 C 239.433594 218.074219 238.953125 218.132812 238.46875 218.140625 C 226.292969 218.304688 226.425781 218.847656 226.253906 218.175781 Z M 257.386719 230.785156 C 256.175781 230.742188 254.964844 230.816406 253.753906 230.804688 C 252.230469 230.808594 250.707031 230.59375 249.183594 230.679688 C 247.292969 230.792969 245.40625 230.6875 243.515625 230.667969 C 241.867188 230.621094 237.296875 230.917969 236.664062 230.675781 C 236.371094 230.503906 236.464844 230.171875 236.769531 230.074219 C 236.980469 230.027344 237.203125 230.027344 237.417969 230 C 241.269531 229.761719 241.632812 229.558594 249.625 229.851562 C 249.746094 229.859375 258.15625 230.488281 258.195312 230.613281 C 258.265625 230.863281 257.53125 230.761719 257.386719 230.785156 Z M 263.367188 235.589844 C 263.339844 235.515625 263.234375 235.078125 263.550781 236.175781 C 263.480469 235.988281 263.417969 235.792969 263.367188 235.589844 Z M 263.367188 235.589844 "/><path style=" stroke:none;fill-rule:nonzero;fill:#ff997a;fill-opacity:1;" d="M 189.542969 132.03125 C 189.289062 130.664062 190.71875 129.894531 191.3125 128.835938 C 191.777344 128.074219 192.121094 127.171875 191.980469 126.269531 C 191.597656 123.53125 188.671875 123.242188 188.019531 123.03125 C 186.851562 122.613281 188.855469 120.527344 189.09375 114.875 C 189.246094 112.1875 187.574219 109.070312 184.746094 108.605469 C 181.273438 108.257812 179.699219 110.363281 178.8125 110.398438 C 177.921875 110.429688 177.246094 108.570312 175.390625 106.527344 C 174.335938 105.410156 172.449219 103.539062 171.101562 102.78125 C 169.648438 102.117188 167.921875 101.746094 166.367188 102.257812 C 165.121094 102.671875 163.316406 104.300781 162.667969 106.382812 C 162.285156 107.414062 162.359375 107.847656 161.992188 108.898438 C 161.425781 111.199219 159.285156 109.144531 156.277344 110.253906 C 154.894531 110.742188 153.640625 111.84375 153.3125 113.320312 C 152.488281 116.449219 155.328125 119.03125 154.019531 121.425781 C 153.230469 122.871094 151.851562 123.851562 150.828125 125.117188 C 150.375 125.703125 149.296875 127.207031 149.109375 127.589844 C 147.949219 129.222656 146.824219 131.085938 146.851562 133.152344 C 147.1875 140.707031 157.277344 148.003906 167.445312 136.757812 C 162.539062 147.191406 173.914062 155.863281 179.785156 149.644531 C 181.261719 148.167969 181.394531 145.613281 183.34375 144.585938 C 184.039062 144.257812 184.792969 144.101562 185.519531 143.855469 C 190.042969 142.203125 191.832031 138.898438 191.25 135.90625 C 190.914062 134.191406 189.742188 133.039062 189.542969 132.03125 Z M 176.597656 127.992188 C 176.597656 128.316406 176.5625 128.636719 176.492188 128.953125 C 177.917969 129.5 179.214844 129.910156 180.523438 129.925781 C 183.164062 129.644531 179.507812 130.90625 176.140625 129.992188 C 176.066406 130.152344 175.984375 130.308594 175.894531 130.460938 C 178.40625 133.1875 180.289062 136.855469 179.828125 136.714844 C 177.1875 133.285156 177.835938 133.847656 175.230469 131.355469 C 175.003906 131.601562 174.761719 131.828125 174.5 132.027344 C 177.832031 138.527344 176.601562 143.003906 176.617188 142.109375 C 176.433594 141.839844 176.765625 137.902344 173.539062 132.613281 C 173.085938 132.824219 172.609375 132.960938 172.128906 133.003906 C 172.285156 137.59375 169.847656 143.785156 170.355469 141.546875 C 170.902344 137.125 171.09375 136.46875 170.835938 132.9375 C 170.171875 132.851562 169.660156 132.734375 169.25 132.582031 C 165.40625 138.136719 157.554688 139.21875 157.992188 138.71875 C 158.058594 138.648438 164.117188 138.109375 168.320312 132.089844 C 167.808594 131.703125 167.0625 130.761719 166.792969 130.292969 C 163.128906 131.195312 158.835938 130.035156 158.171875 129.597656 C 157.917969 129.53125 158.058594 129.359375 158.160156 129.394531 C 161.859375 130.273438 164.753906 129.574219 166.335938 129.191406 C 166.191406 128.664062 166.140625 128.117188 166.179688 127.574219 C 163.132812 127.011719 160.585938 124.714844 160.996094 124.765625 C 161.082031 124.578125 162.363281 126.039062 166.332031 126.65625 C 166.445312 126.214844 166.617188 125.785156 166.84375 125.375 C 164.300781 123.121094 164.335938 119.953125 164.546875 120.890625 C 164.769531 121.003906 164.558594 122.175781 167.339844 124.628906 C 168.429688 123.230469 168.476562 124.050781 168.179688 122.96875 C 167.988281 122.300781 167.058594 120.207031 167.007812 120.125 C 166.746094 119.503906 168.402344 121.5 169.054688 123.136719 C 169.492188 122.878906 170.042969 122.621094 170.542969 122.511719 C 169.839844 116.601562 167.269531 114.671875 167.34375 114.433594 C 167.457031 114.273438 170.386719 116.738281 171.640625 122.421875 C 172.054688 122.441406 172.484375 122.511719 172.902344 122.636719 C 173.566406 120.179688 174.679688 119.105469 174.832031 118.910156 C 175.367188 118.59375 173.9375 120.027344 173.546875 122.871094 C 173.722656 122.949219 173.894531 123.039062 174.0625 123.136719 C 175.4375 120.273438 179.15625 117.527344 179.929688 117.507812 C 180.328125 117.726562 177.347656 118.605469 175.160156 123.46875 C 174.851562 124.15625 175.015625 123.480469 175.851562 124.890625 C 179.628906 123.367188 181.132812 121.921875 181.253906 121.980469 C 181.417969 122.089844 180.089844 124.09375 176.28125 125.828125 C 176.378906 126.113281 176.453125 126.414062 176.5 126.734375 C 180.019531 127.140625 183.386719 126.65625 185.429688 125.949219 C 187.425781 125.117188 183.730469 128.0625 176.597656 127.992188 Z M 176.597656 127.992188 "/><path style=" stroke:none;fill-rule:nonzero;fill:#ff997a;fill-opacity:1;" d="M 193.234375 155.152344 C 195.167969 156.894531 197.75 158.226562 200.867188 158.78125 C 198.335938 156.910156 195.101562 151.179688 195.679688 151.253906 C 195.964844 151.398438 197.800781 155.585938 201.605469 157.734375 C 201.925781 157.894531 201.628906 157.816406 202.476562 157.273438 C 200.359375 152.414062 202.742188 144.003906 202.230469 148.132812 C 202.171875 149.230469 201.863281 152.511719 203.414062 156.726562 C 204.230469 156.4375 205.289062 156.46875 206.339844 156.875 C 207.445312 155.257812 209.421875 153.085938 211.453125 151.769531 C 211.609375 151.636719 211.761719 151.746094 211.578125 151.902344 C 210.65625 152.820312 209.832031 153.339844 207.414062 157.433594 C 207.917969 157.773438 208.398438 158.210938 208.824219 158.757812 C 214.5 157.4375 216.8125 154.535156 217.175781 154.4375 C 217.554688 154.40625 216.5 155.367188 216.183594 155.691406 C 214.441406 157.550781 211.890625 159 209.46875 159.949219 C 209.625 160.382812 209.707031 160.8125 209.730469 161.230469 C 212.714844 162.117188 214.988281 162.113281 218.007812 160.960938 C 218.34375 160.835938 218.699219 160.675781 219.0625 160.503906 C 219.457031 160.277344 219.859375 160.0625 220.242188 159.824219 C 226.300781 156.023438 224.40625 150.839844 219.96875 150.261719 C 219.039062 150.089844 218.09375 150.109375 217.152344 150.164062 C 212.050781 150.207031 214.050781 149.636719 212.992188 146.457031 C 212.476562 144.496094 211 141.285156 208.972656 141.105469 C 205.339844 139.753906 203.105469 142.507812 200.964844 143.546875 C 198.324219 144.886719 196.191406 143.183594 193.570312 144.179688 C 191.039062 145.121094 190.566406 148.402344 190.964844 150.882812 C 191.132812 152.179688 192.039062 153.773438 193.234375 155.152344 Z M 193.234375 155.152344 "/><path style=" stroke:none;fill-rule:nonzero;fill:#ff997a;fill-opacity:1;" d="M 221.144531 166.5625 C 219.90625 165.183594 218.34375 164.09375 216.582031 163.535156 C 214.382812 162.882812 211.25 162.902344 209.597656 163.238281 C 213.003906 165.867188 217.425781 172.019531 216.628906 171.773438 C 216.171875 171.351562 213.328125 167.042969 209.175781 164.347656 C 208.710938 164.078125 209.085938 164.175781 208.316406 164.882812 C 209.949219 169.492188 213.371094 171.742188 212.398438 171.410156 C 211.75 170.847656 211.179688 170.285156 210.675781 169.734375 C 205.988281 165.316406 208.21875 165.296875 206.789062 165.832031 C 207.257812 169.027344 206.617188 176.152344 206.160156 176.285156 C 205.921875 176.285156 206.878906 172.316406 205.320312 166.105469 C 204.945312 166.109375 204.570312 166.066406 204.210938 165.988281 C 202.644531 169.390625 198.398438 173.851562 198.203125 173.824219 C 197.445312 173.792969 201.117188 171.34375 202.855469 165.488281 C 202.40625 165.253906 201.992188 164.964844 201.636719 164.644531 C 196.527344 167.765625 187.234375 169.382812 191.722656 168.03125 C 193.074219 167.390625 197.398438 166.269531 200.796875 163.683594 C 200.445312 163.152344 200.359375 162.851562 200.292969 162.285156 C 197.308594 161.800781 195.632812 162.214844 192.199219 163.082031 C 191.964844 162.941406 192.585938 162.683594 193.488281 162.417969 C 196.644531 161.039062 198.265625 160.867188 200.292969 160.90625 C 200.3125 160.75 200.339844 160.589844 200.371094 160.429688 C 199.261719 159.6875 197.726562 158.8125 195.449219 158.410156 C 193.652344 158.128906 192.148438 158.101562 190.90625 158.199219 C 188.332031 158.625 185.949219 159.582031 184.378906 161.539062 C 182.984375 163.324219 181.992188 165.613281 182.3125 167.917969 C 182.523438 169.578125 184.101562 172.34375 186.957031 174.148438 C 188.21875 174.992188 189.75 175.238281 191.242188 175.386719 C 193.433594 175.550781 194.515625 175.03125 195.429688 174.953125 C 197.347656 174.699219 197.996094 178.152344 199.664062 179.964844 C 200.808594 181.167969 203.042969 182.292969 204.691406 182.445312 C 206.605469 182.625 208.585938 181.898438 210.046875 180.667969 C 212.027344 178.925781 212.023438 176.992188 214.988281 176.894531 C 216.269531 176.789062 217.632812 176.972656 218.90625 176.671875 C 223.464844 175.539062 224.105469 170.753906 221.652344 167.339844 C 221.496094 167.0625 221.324219 166.804688 221.144531 166.5625 Z M 221.144531 166.5625 "/><path style=" stroke:none;fill-rule:nonzero;fill:#ff997a;fill-opacity:1;" d="M 228.089844 97.886719 C 229.859375 98.515625 231.996094 96.480469 231.488281 94.679688 C 231.175781 93.597656 230.195312 92.601562 229.007812 92.695312 C 225.429688 92.746094 225.515625 97.117188 228.089844 97.886719 Z M 228.089844 97.886719 "/><path style=" stroke:none;fill-rule:nonzero;fill:#ff997a;fill-opacity:1;" d="M 249.101562 104.070312 C 248.867188 102.300781 246.765625 100.136719 243.648438 102.03125 C 241.617188 103.480469 241.851562 107.503906 244.769531 108.1875 C 247.238281 108.832031 249.304688 106.4375 249.101562 104.070312 Z M 249.101562 104.070312 "/><path style=" stroke:none;fill-rule:nonzero;fill:#ff997a;fill-opacity:1;" d="M 250.726562 119.15625 C 250.722656 116.601562 247.183594 115.390625 245.074219 117.238281 C 243.125 119.1875 243.855469 122.699219 246.792969 123.078125 C 249.003906 123.488281 250.835938 121.246094 250.726562 119.15625 Z M 250.726562 119.15625 "/><path style=" stroke:none;fill-rule:nonzero;fill:#ff997a;fill-opacity:1;" d="M 233.882812 103.167969 C 229.863281 104.21875 229.992188 109.996094 234.289062 110.453125 C 236.90625 110.660156 238.292969 108.054688 237.847656 105.726562 C 237.429688 104.039062 235.625 102.71875 233.882812 103.167969 Z M 233.882812 103.167969 "/><path style=" stroke:none;fill-rule:nonzero;fill:#ff997a;fill-opacity:1;" d="M 161.472656 94.035156 C 165.589844 94.425781 166.6875 88.578125 163.640625 87.234375 C 159.351562 85.167969 156.445312 90.113281 159.214844 92.933594 C 159.761719 93.5 160.84375 93.972656 161.472656 94.035156 Z M 161.472656 94.035156 "/><path style=" stroke:none;fill-rule:nonzero;fill:#ff997a;fill-opacity:1;" d="M 126.707031 110.96875 C 128.445312 111.375 131.199219 109.929688 130.570312 106.847656 C 130.195312 105.1875 128.394531 103.761719 126.675781 104.308594 C 125.933594 104.539062 125.179688 104.785156 124.679688 105.417969 C 123.046875 107.289062 124.410156 110.433594 126.707031 110.96875 Z M 129.480469 107.730469 C 129.476562 107.914062 129.480469 107.886719 129.445312 107.882812 C 129.472656 107.78125 129.476562 107.746094 129.480469 107.730469 Z M 129.480469 107.730469 "/><path style=" stroke:none;fill-rule:nonzero;fill:#ff997a;fill-opacity:1;" d="M 116.253906 100.773438 C 118.71875 102.121094 121.214844 99.914062 120.925781 97.300781 C 120.734375 95.328125 118.804688 93.605469 116.777344 94.207031 C 115.984375 94.230469 115.460938 94.679688 114.96875 95.292969 C 113.589844 97.015625 114.289062 99.824219 116.253906 100.773438 Z M 116.253906 100.773438 "/><path style=" stroke:none;fill-rule:nonzero;fill:#ff997a;fill-opacity:1;" d="M 114.40625 116.257812 C 116.351562 116.863281 118.46875 115.496094 118.671875 113.457031 C 119.261719 110.210938 115.285156 108.523438 113.210938 110.585938 C 111.730469 111.113281 111.570312 115.484375 114.40625 116.257812 Z M 114.40625 116.257812 "/><g clip-rule="nonzero" clip-path="url(#02f5f54c33)"><path style=" stroke:none;fill-rule:nonzero;fill:#ff997a;fill-opacity:1;" d="M 169.984375 80.980469 C 169.347656 77.789062 165.117188 77.429688 163.910156 80.441406 C 163.054688 82.171875 164.113281 84.664062 166.039062 85.074219 C 168.378906 85.550781 170.542969 83.3125 169.984375 80.980469 Z M 166.609375 82.761719 C 165.101562 82.359375 165.9375 80.144531 167.359375 80.730469 C 168.542969 81.289062 167.757812 82.9375 166.609375 82.761719 Z M 166.609375 82.761719 "/></g><path style=" stroke:none;fill-rule:nonzero;fill:#ff997a;fill-opacity:1;" d="M 259.777344 124.03125 C 257.234375 121.585938 252.492188 123.371094 252.234375 127.246094 C 252.140625 131.875 258.179688 133.511719 260.332031 130.175781 C 261.738281 127.945312 261.675781 125.828125 259.777344 124.03125 Z M 256.152344 128.699219 C 255.070312 128.5 254.824219 127.027344 255.5625 126.328125 C 256.0625 125.355469 257.570312 125.566406 257.886719 126.570312 C 258.363281 127.714844 257.375 128.957031 256.152344 128.699219 Z M 256.152344 128.699219 "/><path style=" stroke:none;fill-rule:nonzero;fill:#ff997a;fill-opacity:1;" d="M 249.824219 132.503906 C 248.054688 131.835938 246.132812 132.847656 245.433594 134.558594 C 243.320312 138.863281 248.585938 141.6875 251.019531 139.71875 C 253.40625 138.074219 253.320312 133.074219 249.824219 132.503906 Z M 247.886719 136.6875 C 246.917969 135.496094 248.492188 133.496094 249.796875 134.710938 C 251.21875 136.035156 249.238281 137.953125 247.886719 136.6875 Z M 247.886719 136.6875 "/><path style=" stroke:none;fill-rule:nonzero;fill:#ff997a;fill-opacity:1;" d="M 252.238281 152.980469 C 251.789062 150.410156 249.605469 149.121094 247.183594 150.207031 C 243.832031 151.25 243.738281 156.589844 247.195312 157.53125 C 250.082031 158.511719 252.882812 155.945312 252.238281 152.980469 Z M 246.957031 154.757812 C 246.210938 154.28125 246.25 153.105469 246.890625 152.554688 C 247.40625 152.09375 248.269531 152.109375 248.738281 152.632812 C 249.707031 153.632812 248.402344 155.824219 246.957031 154.757812 Z M 246.957031 154.757812 "/><path style=" stroke:none;fill-rule:nonzero;fill:#ff997a;fill-opacity:1;" d="M 248.90625 180.71875 C 248.300781 178.894531 246.03125 178.171875 244.285156 178.535156 C 241.109375 179.183594 240.34375 184.753906 245.15625 185.484375 C 247.625 185.726562 249.90625 183.109375 248.90625 180.71875 Z M 244.734375 182.894531 C 243.398438 181.980469 244.542969 179.902344 246.023438 180.457031 C 247.640625 181.183594 246.226562 183.839844 244.734375 182.894531 Z M 244.734375 182.894531 "/><path style=" stroke:none;fill-rule:nonzero;fill:#ff997a;fill-opacity:1;" d="M 111.273438 127.566406 C 110.707031 127.519531 113.402344 126.941406 124.375 132.027344 C 127.308594 133.394531 129.164062 134.199219 130.355469 134.683594 C 130.160156 134.378906 129.921875 134.027344 129.917969 134.015625 C 127.253906 129.996094 123.839844 122.589844 112.453125 125.242188 C 111.160156 125.523438 109.839844 125.789062 108.609375 126.292969 C 108.921875 126.914062 109.339844 128.082031 110.351562 129.535156 C 112.730469 132.953125 114.253906 133.886719 116.65625 135.292969 C 116.65625 135.292969 116.660156 135.292969 116.660156 135.292969 C 116.664062 135.296875 116.664062 135.296875 116.667969 135.296875 C 116.074219 134.980469 120.945312 138.609375 129.621094 135.511719 C 121.5625 132.28125 116.867188 128.476562 111.273438 127.566406 Z M 111.273438 127.566406 "/><path style=" stroke:none;fill-rule:nonzero;fill:#ff997a;fill-opacity:1;" d="M 141.378906 121.761719 C 140.492188 116.976562 137.738281 113.730469 134.3125 110.285156 C 128.023438 116.644531 128.613281 127.648438 135.890625 133.597656 C 133.964844 127.222656 135.257812 117.761719 134.585938 113.617188 C 134.527344 113.378906 134.488281 113.335938 134.503906 113.183594 C 134.445312 112.921875 135.0625 111.996094 135.285156 120.269531 C 135.664062 126.949219 136.261719 130.695312 136.753906 132.855469 C 140.117188 129.691406 142.203125 126.472656 141.378906 121.761719 Z M 141.378906 121.761719 "/><g clip-rule="nonzero" clip-path="url(#4ff2ccdf32)"><path style=" stroke:none;fill-rule:nonzero;fill:#ff997a;fill-opacity:1;" d="M 268.113281 236.925781 C 266.539062 234.671875 264.769531 235.882812 201.917969 235.65625 C 197.785156 235.574219 194.6875 236.699219 192.925781 240.445312 C 189.6875 240.445312 187.132812 240.457031 185.085938 240.472656 C 183.039062 240.457031 180.484375 240.445312 177.246094 240.445312 C 175.484375 236.699219 172.386719 235.574219 168.253906 235.65625 C 105.402344 235.882812 103.632812 234.671875 102.058594 236.925781 C 100.652344 239.402344 102.6875 240.660156 104.992188 240.632812 C 105.210938 240.871094 165.105469 240.796875 168.617188 240.652344 C 169.289062 240.625 171.046875 240.300781 172.125 242.589844 C 172.148438 242.675781 172.101562 242.753906 172.144531 242.824219 C 172.074219 242.914062 172.070312 243.042969 172.125 243.128906 C 172.238281 243.3125 172.429688 243.320312 174.050781 243.320312 C 178.503906 243.320312 182.128906 243.316406 185.085938 243.300781 C 188.042969 243.316406 191.671875 243.320312 196.125 243.320312 C 197.742188 243.320312 197.933594 243.3125 198.050781 243.128906 C 198.105469 243.042969 198.097656 242.914062 198.03125 242.824219 C 198.070312 242.753906 198.023438 242.675781 198.046875 242.589844 C 199.125 240.300781 200.882812 240.625 201.554688 240.652344 C 205.066406 240.796875 264.960938 240.871094 265.179688 240.632812 C 267.488281 240.660156 269.519531 239.402344 268.113281 236.925781 Z M 268.113281 236.925781 "/></g><g style="fill:#9ad0c3;fill-opacity:1;"><g transform="translate(101.435132, 271.705513)"><path style="stroke:none" d="M 4.390625 0.25 C 3.796875 0.25 3.335938 0.0820312 3.015625 -0.25 C 2.691406 -0.59375 2.53125 -1.066406 2.53125 -1.671875 L 2.53125 -20.921875 C 2.53125 -21.546875 2.703125 -22.019531 3.046875 -22.34375 C 3.390625 -22.675781 3.859375 -22.84375 4.453125 -22.84375 C 4.984375 -22.84375 5.40625 -22.738281 5.71875 -22.53125 C 6.03125 -22.332031 6.3125 -21.988281 6.5625 -21.5 L 14.484375 -6.859375 L 13.453125 -6.859375 L 21.375 -21.5 C 21.632812 -21.988281 21.910156 -22.332031 22.203125 -22.53125 C 22.503906 -22.738281 22.921875 -22.84375 23.453125 -22.84375 C 24.054688 -22.84375 24.515625 -22.675781 24.828125 -22.34375 C 25.148438 -22.019531 25.3125 -21.546875 25.3125 -20.921875 L 25.3125 -1.671875 C 25.3125 -1.066406 25.15625 -0.59375 24.84375 -0.25 C 24.539062 0.0820312 24.078125 0.25 23.453125 0.25 C 22.859375 0.25 22.398438 0.0820312 22.078125 -0.25 C 21.753906 -0.59375 21.59375 -1.066406 21.59375 -1.671875 L 21.59375 -16.5 L 22.296875 -16.5 L 15.578125 -4.234375 C 15.359375 -3.867188 15.128906 -3.597656 14.890625 -3.421875 C 14.660156 -3.253906 14.34375 -3.171875 13.9375 -3.171875 C 13.53125 -3.171875 13.195312 -3.257812 12.9375 -3.4375 C 12.6875 -3.625 12.46875 -3.890625 12.28125 -4.234375 L 5.484375 -16.53125 L 6.25 -16.53125 L 6.25 -1.671875 C 6.25 -1.066406 6.09375 -0.59375 5.78125 -0.25 C 5.46875 0.0820312 5.003906 0.25 4.390625 0.25 Z M 4.390625 0.25 "/></g></g><g style="fill:#9ad0c3;fill-opacity:1;"><g transform="translate(129.244971, 271.705513)"><path style="stroke:none" d="M 2.6875 0.25 C 2.175781 0.25 1.765625 0.132812 1.453125 -0.09375 C 1.148438 -0.332031 0.960938 -0.648438 0.890625 -1.046875 C 0.828125 -1.441406 0.90625 -1.882812 1.125 -2.375 L 9.578125 -21.125 C 9.859375 -21.738281 10.195312 -22.175781 10.59375 -22.4375 C 10.988281 -22.707031 11.441406 -22.84375 11.953125 -22.84375 C 12.441406 -22.84375 12.882812 -22.707031 13.28125 -22.4375 C 13.675781 -22.175781 14.015625 -21.738281 14.296875 -21.125 L 22.78125 -2.375 C 23.019531 -1.882812 23.109375 -1.4375 23.046875 -1.03125 C 22.984375 -0.625 22.800781 -0.304688 22.5 -0.078125 C 22.195312 0.140625 21.800781 0.25 21.3125 0.25 C 20.707031 0.25 20.238281 0.109375 19.90625 -0.171875 C 19.582031 -0.460938 19.289062 -0.90625 19.03125 -1.5 L 16.953125 -6.34375 L 18.6875 -5.21875 L 5.15625 -5.21875 L 6.890625 -6.34375 L 4.84375 -1.5 C 4.5625 -0.882812 4.269531 -0.4375 3.96875 -0.15625 C 3.675781 0.113281 3.25 0.25 2.6875 0.25 Z M 11.890625 -18.140625 L 7.40625 -7.46875 L 6.5625 -8.5 L 17.265625 -8.5 L 16.46875 -7.46875 L 11.953125 -18.140625 Z M 11.890625 -18.140625 "/></g></g><g style="fill:#9ad0c3;fill-opacity:1;"><g transform="translate(153.081972, 271.705513)"><path style="stroke:none" d="M 12.984375 0.328125 C 10.628906 0.328125 8.613281 -0.144531 6.9375 -1.09375 C 5.257812 -2.050781 3.972656 -3.398438 3.078125 -5.140625 C 2.179688 -6.878906 1.734375 -8.9375 1.734375 -11.3125 C 1.734375 -13.082031 1.988281 -14.675781 2.5 -16.09375 C 3.007812 -17.519531 3.742188 -18.738281 4.703125 -19.75 C 5.671875 -20.769531 6.851562 -21.550781 8.25 -22.09375 C 9.644531 -22.632812 11.222656 -22.90625 12.984375 -22.90625 C 14.148438 -22.90625 15.300781 -22.753906 16.4375 -22.453125 C 17.570312 -22.160156 18.566406 -21.738281 19.421875 -21.1875 C 19.867188 -20.90625 20.164062 -20.566406 20.3125 -20.171875 C 20.46875 -19.773438 20.5 -19.390625 20.40625 -19.015625 C 20.320312 -18.640625 20.144531 -18.320312 19.875 -18.0625 C 19.613281 -17.8125 19.285156 -17.671875 18.890625 -17.640625 C 18.492188 -17.609375 18.0625 -17.742188 17.59375 -18.046875 C 16.925781 -18.472656 16.207031 -18.78125 15.4375 -18.96875 C 14.675781 -19.164062 13.898438 -19.265625 13.109375 -19.265625 C 11.585938 -19.265625 10.300781 -18.953125 9.25 -18.328125 C 8.207031 -17.710938 7.421875 -16.816406 6.890625 -15.640625 C 6.359375 -14.460938 6.09375 -13.019531 6.09375 -11.3125 C 6.09375 -9.625 6.359375 -8.179688 6.890625 -6.984375 C 7.421875 -5.785156 8.207031 -4.875 9.25 -4.25 C 10.300781 -3.632812 11.585938 -3.328125 13.109375 -3.328125 C 13.921875 -3.328125 14.722656 -3.425781 15.515625 -3.625 C 16.304688 -3.832031 17.050781 -4.148438 17.75 -4.578125 C 18.21875 -4.859375 18.640625 -4.984375 19.015625 -4.953125 C 19.390625 -4.921875 19.703125 -4.785156 19.953125 -4.546875 C 20.210938 -4.316406 20.382812 -4.023438 20.46875 -3.671875 C 20.5625 -3.316406 20.539062 -2.953125 20.40625 -2.578125 C 20.28125 -2.203125 20.023438 -1.878906 19.640625 -1.609375 C 18.785156 -0.984375 17.765625 -0.503906 16.578125 -0.171875 C 15.398438 0.160156 14.203125 0.328125 12.984375 0.328125 Z M 12.984375 0.328125 "/></g></g><g style="fill:#9ad0c3;fill-opacity:1;"><g transform="translate(174.868477, 271.705513)"><path style="stroke:none" d="M 12.59375 0.328125 C 10.414062 0.328125 8.507812 -0.148438 6.875 -1.109375 C 5.238281 -2.078125 3.972656 -3.429688 3.078125 -5.171875 C 2.179688 -6.910156 1.734375 -8.957031 1.734375 -11.3125 C 1.734375 -13.082031 1.988281 -14.675781 2.5 -16.09375 C 3.007812 -17.519531 3.738281 -18.738281 4.6875 -19.75 C 5.644531 -20.769531 6.789062 -21.550781 8.125 -22.09375 C 9.457031 -22.632812 10.945312 -22.90625 12.59375 -22.90625 C 14.789062 -22.90625 16.703125 -22.429688 18.328125 -21.484375 C 19.953125 -20.535156 21.210938 -19.195312 22.109375 -17.46875 C 23.003906 -15.738281 23.453125 -13.695312 23.453125 -11.34375 C 23.453125 -9.570312 23.195312 -7.96875 22.6875 -6.53125 C 22.175781 -5.101562 21.441406 -3.875 20.484375 -2.84375 C 19.535156 -1.820312 18.394531 -1.035156 17.0625 -0.484375 C 15.726562 0.0546875 14.238281 0.328125 12.59375 0.328125 Z M 12.59375 -3.203125 C 13.976562 -3.203125 15.15625 -3.519531 16.125 -4.15625 C 17.101562 -4.800781 17.851562 -5.734375 18.375 -6.953125 C 18.894531 -8.171875 19.15625 -9.625 19.15625 -11.3125 C 19.15625 -13.875 18.582031 -15.859375 17.4375 -17.265625 C 16.300781 -18.679688 14.6875 -19.390625 12.59375 -19.390625 C 11.226562 -19.390625 10.050781 -19.070312 9.0625 -18.4375 C 8.082031 -17.8125 7.332031 -16.894531 6.8125 -15.6875 C 6.289062 -14.476562 6.03125 -13.019531 6.03125 -11.3125 C 6.03125 -8.769531 6.601562 -6.78125 7.75 -5.34375 C 8.90625 -3.914062 10.519531 -3.203125 12.59375 -3.203125 Z M 12.59375 -3.203125 "/></g></g><g style="fill:#9ad0c3;fill-opacity:1;"><g transform="translate(200.019076, 271.705513)"><path style="stroke:none" d="M 4.390625 0.25 C 3.773438 0.25 3.300781 0.0820312 2.96875 -0.25 C 2.632812 -0.59375 2.46875 -1.085938 2.46875 -1.734375 L 2.46875 -20.796875 C 2.46875 -21.460938 2.632812 -21.96875 2.96875 -22.3125 C 3.300781 -22.664062 3.734375 -22.84375 4.265625 -22.84375 C 4.753906 -22.84375 5.117188 -22.75 5.359375 -22.5625 C 5.609375 -22.382812 5.90625 -22.082031 6.25 -21.65625 L 18.515625 -5.734375 L 17.6875 -5.734375 L 17.6875 -20.890625 C 17.6875 -21.515625 17.851562 -21.992188 18.1875 -22.328125 C 18.519531 -22.671875 18.992188 -22.84375 19.609375 -22.84375 C 20.234375 -22.84375 20.703125 -22.671875 21.015625 -22.328125 C 21.335938 -21.992188 21.5 -21.515625 21.5 -20.890625 L 21.5 -1.671875 C 21.5 -1.066406 21.347656 -0.59375 21.046875 -0.25 C 20.753906 0.0820312 20.351562 0.25 19.84375 0.25 C 19.34375 0.25 18.945312 0.15625 18.65625 -0.03125 C 18.375 -0.226562 18.0625 -0.539062 17.71875 -0.96875 L 5.484375 -16.890625 L 6.28125 -16.890625 L 6.28125 -1.734375 C 6.28125 -1.085938 6.117188 -0.59375 5.796875 -0.25 C 5.472656 0.0820312 5.003906 0.25 4.390625 0.25 Z M 4.390625 0.25 "/></g></g><g style="fill:#9ad0c3;fill-opacity:1;"><g transform="translate(223.984238, 271.705513)"><path style="stroke:none" d="M 4.640625 0 C 3.941406 0 3.40625 -0.1875 3.03125 -0.5625 C 2.65625 -0.9375 2.46875 -1.472656 2.46875 -2.171875 L 2.46875 -20.40625 C 2.46875 -21.113281 2.65625 -21.65625 3.03125 -22.03125 C 3.40625 -22.40625 3.941406 -22.59375 4.640625 -22.59375 L 10.859375 -22.59375 C 14.640625 -22.59375 17.5625 -21.617188 19.625 -19.671875 C 21.6875 -17.734375 22.71875 -14.945312 22.71875 -11.3125 C 22.71875 -9.5 22.457031 -7.890625 21.9375 -6.484375 C 21.414062 -5.085938 20.644531 -3.90625 19.625 -2.9375 C 18.613281 -1.976562 17.375 -1.25 15.90625 -0.75 C 14.445312 -0.25 12.765625 0 10.859375 0 Z M 6.5625 -3.390625 L 10.609375 -3.390625 C 11.929688 -3.390625 13.078125 -3.554688 14.046875 -3.890625 C 15.023438 -4.222656 15.835938 -4.710938 16.484375 -5.359375 C 17.140625 -6.015625 17.625 -6.835938 17.9375 -7.828125 C 18.257812 -8.828125 18.421875 -9.988281 18.421875 -11.3125 C 18.421875 -13.957031 17.769531 -15.929688 16.46875 -17.234375 C 15.164062 -18.546875 13.210938 -19.203125 10.609375 -19.203125 L 6.5625 -19.203125 Z M 6.5625 -3.390625 "/></g></g><g style="fill:#9ad0c3;fill-opacity:1;"><g transform="translate(248.397941, 271.705513)"><path style="stroke:none" d="M 12.59375 0.328125 C 10.414062 0.328125 8.507812 -0.148438 6.875 -1.109375 C 5.238281 -2.078125 3.972656 -3.429688 3.078125 -5.171875 C 2.179688 -6.910156 1.734375 -8.957031 1.734375 -11.3125 C 1.734375 -13.082031 1.988281 -14.675781 2.5 -16.09375 C 3.007812 -17.519531 3.738281 -18.738281 4.6875 -19.75 C 5.644531 -20.769531 6.789062 -21.550781 8.125 -22.09375 C 9.457031 -22.632812 10.945312 -22.90625 12.59375 -22.90625 C 14.789062 -22.90625 16.703125 -22.429688 18.328125 -21.484375 C 19.953125 -20.535156 21.210938 -19.195312 22.109375 -17.46875 C 23.003906 -15.738281 23.453125 -13.695312 23.453125 -11.34375 C 23.453125 -9.570312 23.195312 -7.96875 22.6875 -6.53125 C 22.175781 -5.101562 21.441406 -3.875 20.484375 -2.84375 C 19.535156 -1.820312 18.394531 -1.035156 17.0625 -0.484375 C 15.726562 0.0546875 14.238281 0.328125 12.59375 0.328125 Z M 12.59375 -3.203125 C 13.976562 -3.203125 15.15625 -3.519531 16.125 -4.15625 C 17.101562 -4.800781 17.851562 -5.734375 18.375 -6.953125 C 18.894531 -8.171875 19.15625 -9.625 19.15625 -11.3125 C 19.15625 -13.875 18.582031 -15.859375 17.4375 -17.265625 C 16.300781 -18.679688 14.6875 -19.390625 12.59375 -19.390625 C 11.226562 -19.390625 10.050781 -19.070312 9.0625 -18.4375 C 8.082031 -17.8125 7.332031 -16.894531 6.8125 -15.6875 C 6.289062 -14.476562 6.03125 -13.019531 6.03125 -11.3125 C 6.03125 -8.769531 6.601562 -6.78125 7.75 -5.34375 C 8.90625 -3.914062 10.519531 -3.203125 12.59375 -3.203125 Z M 12.59375 -3.203125 "/></g></g><g style="fill:#feead4;fill-opacity:1;"><g transform="translate(130.298008, 293.573477)"><path style="stroke:none" d="M 3.84375 0.09375 C 3.164062 0.09375 2.582031 -0.0507812 2.09375 -0.34375 C 1.613281 -0.632812 1.242188 -1.039062 0.984375 -1.5625 C 0.722656 -2.09375 0.59375 -2.726562 0.59375 -3.46875 C 0.59375 -4.007812 0.664062 -4.5 0.8125 -4.9375 C 0.96875 -5.375 1.179688 -5.742188 1.453125 -6.046875 C 1.734375 -6.347656 2.078125 -6.582031 2.484375 -6.75 C 2.890625 -6.914062 3.34375 -7 3.84375 -7 C 4.25 -7 4.632812 -6.941406 5 -6.828125 C 5.363281 -6.710938 5.679688 -6.546875 5.953125 -6.328125 C 6.035156 -6.265625 6.09375 -6.191406 6.125 -6.109375 C 6.15625 -6.023438 6.160156 -5.945312 6.140625 -5.875 C 6.117188 -5.800781 6.078125 -5.738281 6.015625 -5.6875 C 5.960938 -5.632812 5.894531 -5.609375 5.8125 -5.609375 C 5.738281 -5.609375 5.648438 -5.640625 5.546875 -5.703125 C 5.316406 -5.898438 5.0625 -6.039062 4.78125 -6.125 C 4.5 -6.21875 4.191406 -6.265625 3.859375 -6.265625 C 3.347656 -6.265625 2.910156 -6.15625 2.546875 -5.9375 C 2.191406 -5.71875 1.921875 -5.398438 1.734375 -4.984375 C 1.554688 -4.566406 1.46875 -4.0625 1.46875 -3.46875 C 1.46875 -2.875 1.554688 -2.363281 1.734375 -1.9375 C 1.921875 -1.519531 2.191406 -1.195312 2.546875 -0.96875 C 2.910156 -0.75 3.347656 -0.640625 3.859375 -0.640625 C 4.179688 -0.640625 4.484375 -0.6875 4.765625 -0.78125 C 5.054688 -0.882812 5.328125 -1.03125 5.578125 -1.21875 C 5.671875 -1.28125 5.753906 -1.3125 5.828125 -1.3125 C 5.910156 -1.3125 5.976562 -1.285156 6.03125 -1.234375 C 6.082031 -1.191406 6.117188 -1.132812 6.140625 -1.0625 C 6.171875 -0.988281 6.171875 -0.910156 6.140625 -0.828125 C 6.117188 -0.753906 6.070312 -0.6875 6 -0.625 C 5.71875 -0.394531 5.390625 -0.21875 5.015625 -0.09375 C 4.648438 0.03125 4.257812 0.09375 3.84375 0.09375 Z M 3.84375 0.09375 "/></g></g><g style="fill:#feead4;fill-opacity:1;"><g transform="translate(138.773411, 293.573477)"><path style="stroke:none" d="M 1.265625 0 C 1.128906 0 1.023438 -0.0351562 0.953125 -0.109375 C 0.890625 -0.179688 0.859375 -0.285156 0.859375 -0.421875 L 0.859375 -6.546875 C 0.859375 -6.679688 0.890625 -6.785156 0.953125 -6.859375 C 1.023438 -6.929688 1.125 -6.96875 1.25 -6.96875 C 1.382812 -6.96875 1.484375 -6.929688 1.546875 -6.859375 C 1.617188 -6.785156 1.65625 -6.679688 1.65625 -6.546875 L 1.65625 -0.703125 L 4.875 -0.703125 C 4.988281 -0.703125 5.078125 -0.671875 5.140625 -0.609375 C 5.210938 -0.546875 5.25 -0.460938 5.25 -0.359375 C 5.25 -0.242188 5.210938 -0.15625 5.140625 -0.09375 C 5.078125 -0.03125 4.988281 0 4.875 0 Z M 1.265625 0 "/></g></g><g style="fill:#feead4;fill-opacity:1;"><g transform="translate(145.973689, 293.573477)"><path style="stroke:none" d="M 3.578125 0.09375 C 3.117188 0.09375 2.71875 0.03125 2.375 -0.09375 C 2.03125 -0.21875 1.738281 -0.394531 1.5 -0.625 C 1.269531 -0.863281 1.09375 -1.160156 0.96875 -1.515625 C 0.851562 -1.867188 0.796875 -2.273438 0.796875 -2.734375 L 0.796875 -6.578125 C 0.796875 -6.710938 0.832031 -6.8125 0.90625 -6.875 C 0.976562 -6.945312 1.078125 -6.984375 1.203125 -6.984375 C 1.335938 -6.984375 1.4375 -6.945312 1.5 -6.875 C 1.570312 -6.8125 1.609375 -6.710938 1.609375 -6.578125 L 1.609375 -2.78125 C 1.609375 -2.0625 1.773438 -1.519531 2.109375 -1.15625 C 2.441406 -0.800781 2.929688 -0.625 3.578125 -0.625 C 4.222656 -0.625 4.707031 -0.800781 5.03125 -1.15625 C 5.363281 -1.519531 5.53125 -2.0625 5.53125 -2.78125 L 5.53125 -6.578125 C 5.53125 -6.710938 5.566406 -6.8125 5.640625 -6.875 C 5.710938 -6.945312 5.816406 -6.984375 5.953125 -6.984375 C 6.078125 -6.984375 6.171875 -6.945312 6.234375 -6.875 C 6.304688 -6.8125 6.34375 -6.710938 6.34375 -6.578125 L 6.34375 -2.734375 C 6.34375 -2.128906 6.238281 -1.613281 6.03125 -1.1875 C 5.820312 -0.757812 5.507812 -0.4375 5.09375 -0.21875 C 4.6875 -0.0078125 4.179688 0.09375 3.578125 0.09375 Z M 3.578125 0.09375 "/></g></g><g style="fill:#feead4;fill-opacity:1;"><g transform="translate(154.988566, 293.573477)"><path style="stroke:none" d="M 1.296875 0 C 1.148438 0 1.039062 -0.0351562 0.96875 -0.109375 C 0.894531 -0.179688 0.859375 -0.289062 0.859375 -0.4375 L 0.859375 -6.46875 C 0.859375 -6.613281 0.894531 -6.722656 0.96875 -6.796875 C 1.039062 -6.878906 1.148438 -6.921875 1.296875 -6.921875 L 3.625 -6.921875 C 4.101562 -6.921875 4.503906 -6.847656 4.828125 -6.703125 C 5.160156 -6.566406 5.414062 -6.363281 5.59375 -6.09375 C 5.769531 -5.820312 5.859375 -5.492188 5.859375 -5.109375 C 5.859375 -4.679688 5.734375 -4.320312 5.484375 -4.03125 C 5.234375 -3.738281 4.890625 -3.550781 4.453125 -3.46875 L 4.453125 -3.59375 C 4.941406 -3.539062 5.328125 -3.363281 5.609375 -3.0625 C 5.890625 -2.769531 6.03125 -2.382812 6.03125 -1.90625 C 6.03125 -1.289062 5.828125 -0.816406 5.421875 -0.484375 C 5.023438 -0.160156 4.460938 0 3.734375 0 Z M 1.640625 -0.640625 L 3.65625 -0.640625 C 4.175781 -0.640625 4.566406 -0.742188 4.828125 -0.953125 C 5.097656 -1.171875 5.234375 -1.488281 5.234375 -1.90625 C 5.234375 -2.34375 5.097656 -2.660156 4.828125 -2.859375 C 4.566406 -3.066406 4.175781 -3.171875 3.65625 -3.171875 L 1.640625 -3.171875 Z M 1.640625 -3.828125 L 3.5 -3.828125 C 4.007812 -3.828125 4.394531 -3.929688 4.65625 -4.140625 C 4.925781 -4.347656 5.0625 -4.648438 5.0625 -5.046875 C 5.0625 -5.453125 4.925781 -5.753906 4.65625 -5.953125 C 4.394531 -6.160156 4.007812 -6.265625 3.5 -6.265625 L 1.640625 -6.265625 Z M 1.640625 -3.828125 "/></g></g><g style="fill:#feead4;fill-opacity:1;"><g transform="translate(163.493391, 293.573477)"><path style="stroke:none" d=""/></g></g><g style="fill:#feead4;fill-opacity:1;"><g transform="translate(167.898199, 293.573477)"><path style="stroke:none" d="M 1.296875 0 C 1.148438 0 1.039062 -0.0351562 0.96875 -0.109375 C 0.894531 -0.179688 0.859375 -0.289062 0.859375 -0.4375 L 0.859375 -6.46875 C 0.859375 -6.613281 0.894531 -6.722656 0.96875 -6.796875 C 1.039062 -6.878906 1.148438 -6.921875 1.296875 -6.921875 L 3.1875 -6.921875 C 4.300781 -6.921875 5.160156 -6.625 5.765625 -6.03125 C 6.378906 -5.445312 6.6875 -4.59375 6.6875 -3.46875 C 6.6875 -2.90625 6.609375 -2.40625 6.453125 -1.96875 C 6.304688 -1.539062 6.082031 -1.179688 5.78125 -0.890625 C 5.476562 -0.597656 5.109375 -0.375 4.671875 -0.21875 C 4.242188 -0.0703125 3.75 0 3.1875 0 Z M 1.65625 -0.6875 L 3.125 -0.6875 C 3.582031 -0.6875 3.976562 -0.742188 4.3125 -0.859375 C 4.65625 -0.984375 4.9375 -1.160156 5.15625 -1.390625 C 5.382812 -1.617188 5.554688 -1.90625 5.671875 -2.25 C 5.785156 -2.601562 5.84375 -3.007812 5.84375 -3.46875 C 5.84375 -4.382812 5.613281 -5.070312 5.15625 -5.53125 C 4.707031 -6 4.03125 -6.234375 3.125 -6.234375 L 1.65625 -6.234375 Z M 1.65625 -0.6875 "/></g></g><g style="fill:#feead4;fill-opacity:1;"><g transform="translate(177.050405, 293.573477)"><path style="stroke:none" d="M 1.296875 0 C 1.148438 0 1.039062 -0.0351562 0.96875 -0.109375 C 0.894531 -0.179688 0.859375 -0.289062 0.859375 -0.4375 L 0.859375 -6.46875 C 0.859375 -6.613281 0.894531 -6.722656 0.96875 -6.796875 C 1.039062 -6.878906 1.148438 -6.921875 1.296875 -6.921875 L 4.953125 -6.921875 C 5.054688 -6.921875 5.132812 -6.890625 5.1875 -6.828125 C 5.25 -6.765625 5.28125 -6.679688 5.28125 -6.578125 C 5.28125 -6.472656 5.25 -6.390625 5.1875 -6.328125 C 5.132812 -6.265625 5.054688 -6.234375 4.953125 -6.234375 L 1.640625 -6.234375 L 1.640625 -3.84375 L 4.734375 -3.84375 C 4.847656 -3.84375 4.929688 -3.816406 4.984375 -3.765625 C 5.046875 -3.710938 5.078125 -3.628906 5.078125 -3.515625 C 5.078125 -3.398438 5.046875 -3.3125 4.984375 -3.25 C 4.929688 -3.195312 4.847656 -3.171875 4.734375 -3.171875 L 1.640625 -3.171875 L 1.640625 -0.671875 L 4.953125 -0.671875 C 5.054688 -0.671875 5.132812 -0.640625 5.1875 -0.578125 C 5.25 -0.523438 5.28125 -0.445312 5.28125 -0.34375 C 5.28125 -0.226562 5.25 -0.140625 5.1875 -0.078125 C 5.132812 -0.0234375 5.054688 0 4.953125 0 Z M 1.296875 0 "/></g></g><g style="fill:#feead4;fill-opacity:1;"><g transform="translate(184.643033, 293.573477)"><path style="stroke:none" d=""/></g></g><g style="fill:#feead4;fill-opacity:1;"><g transform="translate(189.04784, 293.573477)"><path style="stroke:none" d="M 1.265625 0 C 1.128906 0 1.023438 -0.0351562 0.953125 -0.109375 C 0.890625 -0.179688 0.859375 -0.285156 0.859375 -0.421875 L 0.859375 -6.546875 C 0.859375 -6.679688 0.890625 -6.785156 0.953125 -6.859375 C 1.023438 -6.929688 1.125 -6.96875 1.25 -6.96875 C 1.382812 -6.96875 1.484375 -6.929688 1.546875 -6.859375 C 1.617188 -6.785156 1.65625 -6.679688 1.65625 -6.546875 L 1.65625 -0.703125 L 4.875 -0.703125 C 4.988281 -0.703125 5.078125 -0.671875 5.140625 -0.609375 C 5.210938 -0.546875 5.25 -0.460938 5.25 -0.359375 C 5.25 -0.242188 5.210938 -0.15625 5.140625 -0.09375 C 5.078125 -0.03125 4.988281 0 4.875 0 Z M 1.265625 0 "/></g></g><g style="fill:#feead4;fill-opacity:1;"><g transform="translate(196.248119, 293.573477)"><path style="stroke:none" d="M 1.296875 0 C 1.148438 0 1.039062 -0.0351562 0.96875 -0.109375 C 0.894531 -0.179688 0.859375 -0.289062 0.859375 -0.4375 L 0.859375 -6.46875 C 0.859375 -6.613281 0.894531 -6.722656 0.96875 -6.796875 C 1.039062 -6.878906 1.148438 -6.921875 1.296875 -6.921875 L 4.953125 -6.921875 C 5.054688 -6.921875 5.132812 -6.890625 5.1875 -6.828125 C 5.25 -6.765625 5.28125 -6.679688 5.28125 -6.578125 C 5.28125 -6.472656 5.25 -6.390625 5.1875 -6.328125 C 5.132812 -6.265625 5.054688 -6.234375 4.953125 -6.234375 L 1.640625 -6.234375 L 1.640625 -3.84375 L 4.734375 -3.84375 C 4.847656 -3.84375 4.929688 -3.816406 4.984375 -3.765625 C 5.046875 -3.710938 5.078125 -3.628906 5.078125 -3.515625 C 5.078125 -3.398438 5.046875 -3.3125 4.984375 -3.25 C 4.929688 -3.195312 4.847656 -3.171875 4.734375 -3.171875 L 1.640625 -3.171875 L 1.640625 -0.671875 L 4.953125 -0.671875 C 5.054688 -0.671875 5.132812 -0.640625 5.1875 -0.578125 C 5.25 -0.523438 5.28125 -0.445312 5.28125 -0.34375 C 5.28125 -0.226562 5.25 -0.140625 5.1875 -0.078125 C 5.132812 -0.0234375 5.054688 0 4.953125 0 Z M 1.296875 0 "/></g></g><g style="fill:#feead4;fill-opacity:1;"><g transform="translate(203.840747, 293.573477)"><path style="stroke:none" d="M 3.84375 0.09375 C 3.164062 0.09375 2.582031 -0.0507812 2.09375 -0.34375 C 1.613281 -0.632812 1.242188 -1.039062 0.984375 -1.5625 C 0.722656 -2.09375 0.59375 -2.726562 0.59375 -3.46875 C 0.59375 -4.007812 0.664062 -4.5 0.8125 -4.9375 C 0.96875 -5.375 1.179688 -5.742188 1.453125 -6.046875 C 1.734375 -6.347656 2.078125 -6.582031 2.484375 -6.75 C 2.890625 -6.914062 3.34375 -7 3.84375 -7 C 4.25 -7 4.632812 -6.941406 5 -6.828125 C 5.363281 -6.710938 5.679688 -6.546875 5.953125 -6.328125 C 6.035156 -6.265625 6.09375 -6.191406 6.125 -6.109375 C 6.15625 -6.023438 6.160156 -5.945312 6.140625 -5.875 C 6.117188 -5.800781 6.078125 -5.738281 6.015625 -5.6875 C 5.960938 -5.632812 5.894531 -5.609375 5.8125 -5.609375 C 5.738281 -5.609375 5.648438 -5.640625 5.546875 -5.703125 C 5.316406 -5.898438 5.0625 -6.039062 4.78125 -6.125 C 4.5 -6.21875 4.191406 -6.265625 3.859375 -6.265625 C 3.347656 -6.265625 2.910156 -6.15625 2.546875 -5.9375 C 2.191406 -5.71875 1.921875 -5.398438 1.734375 -4.984375 C 1.554688 -4.566406 1.46875 -4.0625 1.46875 -3.46875 C 1.46875 -2.875 1.554688 -2.363281 1.734375 -1.9375 C 1.921875 -1.519531 2.191406 -1.195312 2.546875 -0.96875 C 2.910156 -0.75 3.347656 -0.640625 3.859375 -0.640625 C 4.179688 -0.640625 4.484375 -0.6875 4.765625 -0.78125 C 5.054688 -0.882812 5.328125 -1.03125 5.578125 -1.21875 C 5.671875 -1.28125 5.753906 -1.3125 5.828125 -1.3125 C 5.910156 -1.3125 5.976562 -1.285156 6.03125 -1.234375 C 6.082031 -1.191406 6.117188 -1.132812 6.140625 -1.0625 C 6.171875 -0.988281 6.171875 -0.910156 6.140625 -0.828125 C 6.117188 -0.753906 6.070312 -0.6875 6 -0.625 C 5.71875 -0.394531 5.390625 -0.21875 5.015625 -0.09375 C 4.648438 0.03125 4.257812 0.09375 3.84375 0.09375 Z M 3.84375 0.09375 "/></g></g><g style="fill:#feead4;fill-opacity:1;"><g transform="translate(212.316149, 293.573477)"><path style="stroke:none" d="M 2.953125 0.0625 C 2.828125 0.0625 2.726562 0.0234375 2.65625 -0.046875 C 2.582031 -0.117188 2.546875 -0.222656 2.546875 -0.359375 L 2.546875 -6.21875 L 0.34375 -6.21875 C 0.226562 -6.21875 0.132812 -6.25 0.0625 -6.3125 C 0 -6.382812 -0.03125 -6.472656 -0.03125 -6.578125 C -0.03125 -6.679688 0 -6.765625 0.0625 -6.828125 C 0.132812 -6.890625 0.226562 -6.921875 0.34375 -6.921875 L 5.578125 -6.921875 C 5.691406 -6.921875 5.78125 -6.890625 5.84375 -6.828125 C 5.914062 -6.765625 5.953125 -6.679688 5.953125 -6.578125 C 5.953125 -6.460938 5.914062 -6.375 5.84375 -6.3125 C 5.78125 -6.25 5.691406 -6.21875 5.578125 -6.21875 L 3.359375 -6.21875 L 3.359375 -0.359375 C 3.359375 -0.222656 3.320312 -0.117188 3.25 -0.046875 C 3.1875 0.0234375 3.085938 0.0625 2.953125 0.0625 Z M 2.953125 0.0625 "/></g></g><g style="fill:#feead4;fill-opacity:1;"><g transform="translate(220.095133, 293.573477)"><path style="stroke:none" d="M 3.578125 0.09375 C 3.117188 0.09375 2.71875 0.03125 2.375 -0.09375 C 2.03125 -0.21875 1.738281 -0.394531 1.5 -0.625 C 1.269531 -0.863281 1.09375 -1.160156 0.96875 -1.515625 C 0.851562 -1.867188 0.796875 -2.273438 0.796875 -2.734375 L 0.796875 -6.578125 C 0.796875 -6.710938 0.832031 -6.8125 0.90625 -6.875 C 0.976562 -6.945312 1.078125 -6.984375 1.203125 -6.984375 C 1.335938 -6.984375 1.4375 -6.945312 1.5 -6.875 C 1.570312 -6.8125 1.609375 -6.710938 1.609375 -6.578125 L 1.609375 -2.78125 C 1.609375 -2.0625 1.773438 -1.519531 2.109375 -1.15625 C 2.441406 -0.800781 2.929688 -0.625 3.578125 -0.625 C 4.222656 -0.625 4.707031 -0.800781 5.03125 -1.15625 C 5.363281 -1.519531 5.53125 -2.0625 5.53125 -2.78125 L 5.53125 -6.578125 C 5.53125 -6.710938 5.566406 -6.8125 5.640625 -6.875 C 5.710938 -6.945312 5.816406 -6.984375 5.953125 -6.984375 C 6.078125 -6.984375 6.171875 -6.945312 6.234375 -6.875 C 6.304688 -6.8125 6.34375 -6.710938 6.34375 -6.578125 L 6.34375 -2.734375 C 6.34375 -2.128906 6.238281 -1.613281 6.03125 -1.1875 C 5.820312 -0.757812 5.507812 -0.4375 5.09375 -0.21875 C 4.6875 -0.0078125 4.179688 0.09375 3.578125 0.09375 Z M 3.578125 0.09375 "/></g></g><g style="fill:#feead4;fill-opacity:1;"><g transform="translate(229.11001, 293.573477)"><path style="stroke:none" d="M 1.25 0.0625 C 1.125 0.0625 1.023438 0.0234375 0.953125 -0.046875 C 0.890625 -0.117188 0.859375 -0.222656 0.859375 -0.359375 L 0.859375 -6.5 C 0.859375 -6.644531 0.890625 -6.75 0.953125 -6.8125 C 1.023438 -6.882812 1.128906 -6.921875 1.265625 -6.921875 L 3.59375 -6.921875 C 4.332031 -6.921875 4.898438 -6.742188 5.296875 -6.390625 C 5.691406 -6.046875 5.890625 -5.554688 5.890625 -4.921875 C 5.890625 -4.515625 5.800781 -4.160156 5.625 -3.859375 C 5.445312 -3.566406 5.179688 -3.34375 4.828125 -3.1875 C 4.484375 -3.03125 4.070312 -2.953125 3.59375 -2.953125 L 3.6875 -3.078125 L 3.890625 -3.078125 C 4.140625 -3.078125 4.359375 -3.007812 4.546875 -2.875 C 4.742188 -2.75 4.921875 -2.539062 5.078125 -2.25 L 6.015625 -0.5 C 6.066406 -0.40625 6.085938 -0.3125 6.078125 -0.21875 C 6.078125 -0.132812 6.046875 -0.0664062 5.984375 -0.015625 C 5.929688 0.0351562 5.847656 0.0625 5.734375 0.0625 C 5.628906 0.0625 5.539062 0.0351562 5.46875 -0.015625 C 5.394531 -0.0664062 5.332031 -0.140625 5.28125 -0.234375 L 4.203125 -2.21875 C 4.054688 -2.5 3.882812 -2.6875 3.6875 -2.78125 C 3.488281 -2.875 3.234375 -2.921875 2.921875 -2.921875 L 1.65625 -2.921875 L 1.65625 -0.359375 C 1.65625 -0.222656 1.625 -0.117188 1.5625 -0.046875 C 1.5 0.0234375 1.394531 0.0625 1.25 0.0625 Z M 1.65625 -3.5625 L 3.46875 -3.5625 C 4.007812 -3.5625 4.414062 -3.671875 4.6875 -3.890625 C 4.96875 -4.117188 5.109375 -4.460938 5.109375 -4.921875 C 5.109375 -5.359375 4.96875 -5.6875 4.6875 -5.90625 C 4.414062 -6.132812 4.007812 -6.25 3.46875 -6.25 L 1.65625 -6.25 Z M 1.65625 -3.5625 "/></g></g><g style="fill:#feead4;fill-opacity:1;"><g transform="translate(237.546182, 293.573477)"><path style="stroke:none" d="M 0.703125 0.0625 C 0.597656 0.0625 0.515625 0.0390625 0.453125 0 C 0.390625 -0.0507812 0.351562 -0.117188 0.34375 -0.203125 C 0.332031 -0.285156 0.351562 -0.378906 0.40625 -0.484375 L 3.09375 -6.625 C 3.15625 -6.75 3.226562 -6.835938 3.3125 -6.890625 C 3.394531 -6.953125 3.484375 -6.984375 3.578125 -6.984375 C 3.679688 -6.984375 3.769531 -6.953125 3.84375 -6.890625 C 3.925781 -6.835938 3.992188 -6.75 4.046875 -6.625 L 6.765625 -0.484375 C 6.816406 -0.378906 6.835938 -0.28125 6.828125 -0.1875 C 6.816406 -0.101562 6.78125 -0.0390625 6.71875 0 C 6.664062 0.0390625 6.582031 0.0625 6.46875 0.0625 C 6.351562 0.0625 6.257812 0.03125 6.1875 -0.03125 C 6.113281 -0.09375 6.054688 -0.179688 6.015625 -0.296875 L 5.28125 -1.96875 L 5.6875 -1.765625 L 1.46875 -1.765625 L 1.859375 -1.96875 L 1.140625 -0.296875 C 1.085938 -0.171875 1.023438 -0.078125 0.953125 -0.015625 C 0.890625 0.0351562 0.804688 0.0625 0.703125 0.0625 Z M 3.578125 -5.96875 L 1.984375 -2.25 L 1.75 -2.4375 L 5.390625 -2.4375 L 5.171875 -2.25 L 3.59375 -5.96875 Z M 3.578125 -5.96875 "/></g></g></g></svg>